<?xml version="1.0" standalone="no"?>
<!DOCTYPE svg PUBLIC "-//W3C//DTD SVG 1.1//EN" "http://www.w3.org/Graphics/SVG/1.1/DTD/svg11.dtd" >
<svg xmlns="http://www.w3.org/2000/svg" xmlns:xlink="http://www.w3.org/1999/xlink" version="1.1">
<metadata>
Created by FontForge 20170731 at Wed Oct  4 15:47:19 2017
 By Aleksey,,,
Copyright (c) 2017 by Lewis McGuffie. All rights reserved.
</metadata>
<defs>
<font id="TuskerGrotesk-4500Medium" horiz-adv-x="983" >
  <font-face 
    font-family="Tusker Grotesk 4500 Medium"
    font-weight="500"
    font-stretch="semi-condensed"
    units-per-em="2048"
    panose-1="0 0 6 6 0 0 0 0 0 0"
    ascent="1638"
    descent="-410"
    x-height="1681"
    cap-height="1935"
    bbox="-51 -508.045 1720 2167"
    underline-thickness="0"
    underline-position="0"
    unicode-range="U+0020-25CA"
  />
<missing-glyph horiz-adv-x="1075" 
d="M883 1946v-2151h-682v2151h682zM717 1802h-357v-71h142v-80h-144v-70h359v70h-144v80h144v71zM573 1524h-215v-224h359v74h-144v150zM502 1452v-78h-72v78h72zM717 1243h-359v-72h144v-79h-144v-70h215v149h144v72zM717 1114h-72v-143h-287v-72h359v215zM717 852h-215
v-121h71v49h72v-100h-215v172h-72v-244h359v244zM717 479h-359v-243h359v243zM645 408v-101h-215v101h215zM717 186h-359v-71h152l-152 -101v-71h359v71h-219l149 101h70v71z" />
    <glyph glyph-name=".notdef" horiz-adv-x="1075" 
d="M883 1946v-2151h-682v2151h682zM717 1802h-357v-71h142v-80h-144v-70h359v70h-144v80h144v71zM573 1524h-215v-224h359v74h-144v150zM502 1452v-78h-72v78h72zM717 1243h-359v-72h144v-79h-144v-70h215v149h144v72zM717 1114h-72v-143h-287v-72h359v215zM717 852h-215
v-121h71v49h72v-100h-215v172h-72v-244h359v244zM717 479h-359v-243h359v243zM645 408v-101h-215v101h215zM717 186h-359v-71h152l-152 -101v-71h359v71h-219l149 101h70v71z" />
    <glyph glyph-name="glyph1" horiz-adv-x="0" 
 />
    <glyph glyph-name="glyph2" horiz-adv-x="681" 
 />
    <glyph glyph-name="space" unicode=" " horiz-adv-x="323" 
 />
    <glyph glyph-name="exclam" unicode="!" horiz-adv-x="493" 
d="M350 449h-207l-32 604v882h270v-882zM111 313h272v-313h-272v313z" />
    <glyph glyph-name="quotedbl" unicode="&#x22;" horiz-adv-x="927" 
d="M371 1935l-33 -708h-182l-35 708h250zM809 1935l-33 -708h-182l-35 708h250z" />
    <glyph glyph-name="numbersign" unicode="#" horiz-adv-x="1331" 
d="M1268 1063h-252l-37 -315h244l-35 -209h-236l-90 -744h-231l90 744h-219l-90 -744h-232l90 744h-254l33 209h248l37 315h-236l35 209h227l82 674h232l-82 -674h219l82 674h231l-82 -674h261zM748 748l36 315h-219l-37 -315h220z" />
    <glyph glyph-name="dollar" unicode="$" horiz-adv-x="970" 
d="M614 1114q141 -57 209 -135t68 -229v-394q0 -164 -99.5 -264t-265.5 -110v-187h-96v191q-154 14 -241 105t-87 235v397h271v-377q0 -55 31.5 -91t91.5 -36q53 0 86.5 35t33.5 86v369q0 109 -122 159l-150 54q-129 47 -188.5 129t-59.5 223v330q0 135 85 232t249 114v209
h96v-209q168 -8 257 -96.5t89 -229.5v-338h-268v311q0 117 -121 117q-55 0 -84.5 -28.5t-29.5 -71.5v-303q0 -55 23.5 -85t80.5 -57z" />
    <glyph glyph-name="percent" unicode="%" horiz-adv-x="1261" 
d="M344 1956q102 0 164.5 -61.5t62.5 -168.5v-147q0 -109 -62.5 -170t-164.5 -61t-163.5 61t-61.5 170v147q0 106 62.5 168t162.5 62zM885 1946h254l-760 -1946h-264zM385 1571v162q0 47 -41 47q-39 0 -39 -47v-162q0 -49 39 -49q41 0 41 49zM924 590q102 0 164.5 -61.5
t62.5 -168.5v-147q0 -106 -62.5 -168.5t-164.5 -62.5q-100 0 -163 62t-63 169v147q0 106 63 168t163 62zM965 205v162q0 49 -41 49q-39 0 -39 -49v-162q0 -49 39 -49q41 0 41 49z" />
    <glyph glyph-name="ampersand" unicode="&#x26;" horiz-adv-x="1026" 
d="M997 883h-161v-578q0 -82 73 -82h88v-223h-147q-229 0 -270 160q-90 -178 -256 -178q-135 0 -211 86t-76 231v385q0 123 53 203t133 108q-160 76 -160 277v366q0 139 100.5 227.5t276.5 86.5q193 0 294.5 -85t101.5 -235v-426h-265v402q0 113 -116 112q-59 0 -92 -31.5
t-33 -82.5v-381q0 -121 127 -121h540v-221zM442.5 213q61.5 0 95 39t33.5 110v521h-92q-170 0 -170 -142v-385q0 -70 36 -106.5t97.5 -36.5z" />
    <glyph glyph-name="quotesingle" unicode="'" horiz-adv-x="489" 
d="M371 1935l-33 -708h-182l-35 708h250z" />
    <glyph glyph-name="parenleft" unicode="(" horiz-adv-x="618" 
d="M588 1946q-104 -231 -160.5 -484.5t-56.5 -591.5t56 -590.5t161 -484.5h-211q-117 150 -200 430.5t-83 645t83 645t200 430.5h211z" />
    <glyph glyph-name="parenright" unicode=")" horiz-adv-x="618" 
d="M242 1946q117 -150 199.5 -430.5t82.5 -645t-83 -645t-199 -430.5h-211q104 231 160.5 484t56.5 591t-56.5 591t-160.5 485h211z" />
    <glyph glyph-name="asterisk" unicode="*" horiz-adv-x="684" 
d="M352 1952l23 -170l117 125l120 -166l-151 -78l151 -70l-118 -166l-117 123l-23 -168l-196 64l82 145l-166 -26v207l166 -35l-84 151z" />
    <glyph glyph-name="plus" unicode="+" horiz-adv-x="784" 
d="M723 1079v-198h-227v-236h-205v236h-230v198h230v234h205v-234h227z" />
    <glyph glyph-name="comma" unicode="," horiz-adv-x="514" 
d="M121 313h274v-356q0 -80 -48 -124t-138 -44h-90v98h53q76 0 76 78v35h-127v313z" />
    <glyph glyph-name="hyphen" unicode="-" horiz-adv-x="602" 
d="M584 1085v-225h-566v225h566z" />
    <glyph glyph-name="period" unicode="." horiz-adv-x="514" 
d="M395 313v-313h-274v313h274z" />
    <glyph glyph-name="slash" unicode="/" horiz-adv-x="790" 
d="M516 1946h258l-516 -2151h-258z" />
    <glyph glyph-name="zero" unicode="0" horiz-adv-x="929" 
d="M465 1952q176 0 274.5 -97.5t98.5 -279.5v-1217q0 -182 -98.5 -279t-274.5 -97t-273.5 97t-97.5 279v1217q0 182 97.5 279.5t273.5 97.5zM567 342v1249q0 66 -27.5 99.5t-72.5 33.5t-75 -33.5t-30 -99.5v-1249q0 -133 103 -133q45 0 73.5 33.5t28.5 99.5z" />
    <glyph glyph-name="one" unicode="1" horiz-adv-x="559" 
d="M287 1942h174v-1942h-268v1518h-179v161q141 14 197 81t76 182z" />
    <glyph glyph-name="two" unicode="2" horiz-adv-x="890" 
d="M844 209v-209h-781v90q0 162 50.5 315.5t123 269.5t145.5 221t123 208.5t50 193.5v301q0 125 -102 125q-49 0 -80 -33.5t-31 -95.5v-378h-258v389q0 158 101.5 252t285.5 94q158 0 256 -86t98 -228v-278q0 -152 -74.5 -323t-162.5 -298t-163 -274.5t-75 -255.5h494z" />
    <glyph glyph-name="three" unicode="3" horiz-adv-x="892" 
d="M635 1030q186 -29 186 -276v-422q0 -166 -98 -257t-272 -91q-178 0 -274.5 94t-96.5 280v453h258v-477q0 -59 30.5 -91t80.5 -32q47 0 75.5 36t28.5 103v420q0 78 -30.5 110.5t-94.5 32.5h-154l-34 211h182q72 0 95.5 34t23.5 108v340q0 55 -28 86.5t-73 31.5
q-47 0 -75.5 -31.5t-28.5 -90.5v-385h-254v389q0 168 96 257t279 89q160 0 255 -83t95 -231v-329q0 -111 -39 -173.5t-133 -93.5v-12z" />
    <glyph glyph-name="four" unicode="4" horiz-adv-x="1001" 
d="M729 1935q8 -698 -379 -1241l8 -18h189v139q74 88 125 228.5t65 287.5h76v-653h154v-211h-154v-467h-266v467h-510v197q96 158 152.5 261t130 273t109.5 353.5t36 383.5h264z" />
    <glyph glyph-name="five" unicode="5" horiz-adv-x="909" 
d="M385 1040q74 127 219 127q104 0 168 -72.5t64 -217.5v-527q0 -178 -98.5 -272t-276.5 -94q-176 0 -272.5 94t-96.5 280v435h260v-459q0 -61 30 -92t79 -31q47 0 75.5 26.5t28.5 77.5v531q0 104 -98 104q-80 0 -105 -78l-253 58l53 1005h655l-22 -209h-389l-35 -686h14z
" />
    <glyph glyph-name="six" unicode="6" horiz-adv-x="925" 
d="M375 987q78 137 221 137q104 0 172 -77.5t68 -221.5v-475q0 -174 -98.5 -270t-272.5 -96q-178 0 -274.5 94t-96.5 280v1217q0 180 97.5 278.5t265.5 98.5q174 0 269 -90t95 -256v-389h-256v385q0 123 -102 122q-47 0 -75 -29.5t-28 -76.5v-631h15zM567 315v476
q0 53 -29.5 84.5t-76.5 31.5q-45 0 -73 -32.5t-28 -83.5v-457q0 -123 105 -123q43 0 72.5 29.5t29.5 74.5z" />
    <glyph glyph-name="seven" unicode="7" horiz-adv-x="808" 
d="M61 1935h723v-178q-338 -776 -348 -1757h-270q0 1018 346 1726h-451v209z" />
    <glyph glyph-name="eight" unicode="8" horiz-adv-x="901" 
d="M252 1036q-166 55 -166 269v333q0 141 96.5 227.5t268.5 86.5q174 0 270 -86t96 -228v-333q0 -215 -174 -271v-10q188 -47 188 -274v-431q0 -162 -101 -248.5t-279.5 -86.5t-279.5 87t-101 248v431q0 223 182 274v12zM553 1253v349q0 125 -102 124q-100 0 -101 -124v-349
q0 -129 101 -129q102 0 102 129zM561 342v455q0 133 -110 133q-51 0 -81 -36t-30 -97v-455q0 -59 28.5 -95t82.5 -36q110 0 110 131z" />
    <glyph glyph-name="nine" unicode="9" horiz-adv-x="925" 
d="M551 950q-78 -137 -221 -137q-104 0 -172 78t-68 221v475q0 174 98.5 270.5t272.5 96.5q178 0 274 -94.5t96 -280.5v-1217q0 -180 -97 -278t-265 -98q-174 0 -269.5 90t-95.5 256v389h256v-385q0 -123 103 -123q47 0 74.5 29.5t27.5 76.5v631h-14zM358 1622v-475
q0 -53 30 -85t77 -32q45 0 72.5 33t27.5 84v457q0 123 -104 122q-43 0 -73 -29.5t-30 -74.5z" />
    <glyph glyph-name="colon" unicode=":" horiz-adv-x="514" 
d="M395 1176v-314h-274v314h274zM395 313v-313h-274v313h274z" />
    <glyph glyph-name="semicolon" unicode=";" horiz-adv-x="514" 
d="M123 1176h274v-314h-274v314zM123 0v313h274v-356q0 -80 -48 -124t-138 -44h-90v98h53q76 0 76 78v35h-127z" />
    <glyph glyph-name="question" unicode="?" horiz-adv-x="890" 
d="M301 440q8 156 49 293t86 216t82 168t37 161v356q0 51 -33 79t-80 28q-53 0 -89 -30t-36 -89v-383h-258v389q0 152 100.5 238t282.5 86q180 0 280.5 -77t100.5 -222v-359q0 -92 -26.5 -177t-65.5 -154.5t-79 -142t-70.5 -171t-36.5 -209.5h-244zM561 313v-313h-274v313
h274z" />
    <glyph glyph-name="at" unicode="@" horiz-adv-x="1396" 
d="M1280 137h-211l-49 166q-106 -186 -248 -184q-109 2 -174.5 76.5t-65.5 226.5v829q0 303 240 303q143 0 246 -172v80q0 121 -69.5 192.5t-209.5 71.5q-362 0 -362 -417v-903q0 -408 362 -408h545v-219h-547q-289 0 -457.5 161.5t-168.5 483.5v872q0 317 171 485.5
t457 164.5q276 -4 408.5 -140.5t132.5 -361.5v-1307zM1016 436v803q-12 35 -46 61.5t-79 26.5q-90 0 -90 -125v-731q0 -125 90 -125q76 0 125 90z" />
    <glyph glyph-name="A" unicode="A" horiz-adv-x="948" 
d="M664 0l-46 438l-288 4l-47 -442h-279l270 1935h406l266 -1935h-282zM354 676h240l-70 674l-41 325h-18l-41 -325z" />
    <glyph glyph-name="B" unicode="B" horiz-adv-x="968" 
d="M713 987q88 -20 142 -91t54 -181v-381q0 -154 -97 -244t-267 -90h-434v1935h436q156 0 245 -81.5t89 -217.5v-370q0 -219 -168 -265v-14zM506 1700h-123v-596h123q51 0 80.5 28.5t29.5 84.5v370q1 113 -110 113zM496 879h-113v-643h111q141 0 141 137v375q0 131 -139 131
z" />
    <glyph glyph-name="C" unicode="C" horiz-adv-x="964" 
d="M877 881v-525q0 -178 -100.5 -276t-287.5 -98q-190 0 -292.5 110.5t-102.5 313.5v1124q0 201 102.5 311.5t292.5 110.5q186 0 287 -96.5t101 -274.5v-469h-269v459q0 66 -31.5 104.5t-85 38.5t-88 -39t-34.5 -104v-1206q0 -66 34.5 -106t88 -40t85 40t31.5 106v516h269z
" />
    <glyph glyph-name="D" unicode="D" 
d="M518 1935q174 0 272.5 -104.5t98.5 -298.5v-1129q0 -195 -98.5 -299t-272.5 -104h-407v1935h407zM614 377v1184q0 66 -32.5 102.5t-85.5 36.5h-113v-1464h111q53 0 86.5 36.5t33.5 104.5z" />
    <glyph glyph-name="E" unicode="E" horiz-adv-x="800" 
d="M383 236h350v-236h-622v1935h618v-235h-346v-588h317v-231h-317v-645z" />
    <glyph glyph-name="F" unicode="F" horiz-adv-x="741" 
d="M719 1700h-336v-588h311v-235h-311v-877h-272v1935h608v-235z" />
    <glyph glyph-name="G" unicode="G" horiz-adv-x="970" 
d="M618 131q-57 -150 -237 -149q-127 2 -207 96t-80 264v1188q0 203 103.5 312.5t298.5 109.5q188 0 287.5 -96.5t99.5 -266.5v-407h-271v389q0 143 -120 143q-53 0 -88 -39t-35 -104v-1209q0 -143 120 -143q53 0 89 39t36 96v453h-127v229h396v-1036h-219l-27 131h-19z" />
    <glyph glyph-name="H" unicode="H" horiz-adv-x="989" 
d="M604 1935h273v-1935h-273v877h-221v-877h-272v1935h272v-821h221v821z" />
    <glyph glyph-name="I" unicode="I" horiz-adv-x="493" 
d="M111 1935h272v-1935h-272v1935z" />
    <glyph glyph-name="J" unicode="J" horiz-adv-x="942" 
d="M836 1935v-1601q0 -170 -101.5 -261t-283.5 -91q-186 0 -284.5 89t-98.5 259v557h276v-535q0 -133 107 -133q109 0 108 133v1348h-354v235h631z" />
    <glyph glyph-name="K" unicode="K" horiz-adv-x="980" 
d="M983 0h-313l-267 893h-22l2 -893h-272v1935h272v-858h18l258 858h291l-305 -936z" />
    <glyph glyph-name="L" unicode="L" horiz-adv-x="710" 
d="M383 236h334v-236h-606v1935h272v-1699z" />
    <glyph glyph-name="M" unicode="M" horiz-adv-x="1368" 
d="M694 553l41 426l131 956h391v-1935h-253l2 756l12 639h-19l-176 -1395h-288l-164 1395h-19l13 -639v-756h-254v1935h397l127 -956l43 -426h16z" />
    <glyph glyph-name="N" unicode="N" horiz-adv-x="1009" 
d="M662 840l-19 555v540h254v-1935h-264l-266 1196h-17l15 -528v-668h-254v1935h292l242 -1095h17z" />
    <glyph glyph-name="O" unicode="O" 
d="M489 1952q193 0 296.5 -110.5t103.5 -311.5v-1124q0 -203 -104.5 -313.5t-295 -110.5t-293 110.5t-102.5 313.5v1124q0 201 102.5 311.5t292.5 110.5zM614 365v1206q0 66 -32.5 104.5t-88 38.5t-90 -39t-34.5 -104v-1206q0 -66 34.5 -106t88.5 -40q55 0 88.5 40t33.5 106
z" />
    <glyph glyph-name="P" unicode="P" horiz-adv-x="958" 
d="M506 606h-123v-606h-272v1935h393q186 0 290.5 -100t104.5 -289v-540q0 -184 -110.5 -292t-282.5 -108zM481 842q68 0 105 44t37 124v528q0 78 -37 120t-105 42h-98v-858h98z" />
    <glyph glyph-name="Q" unicode="Q" 
d="M889 406q0 -221 -127 -336l115 -275l-285 2l-66 187q-12 -2 -37 -2q-190 0 -292.5 110.5t-102.5 313.5v1124q0 201 102.5 311.5t292.5 110.5q193 0 296.5 -110.5t103.5 -311.5v-1124zM369 365q0 -66 34.5 -106t88.5 -40q55 0 88.5 40t33.5 106v1206q0 66 -32.5 104.5
t-88 38.5t-90 -39t-34.5 -104v-1206z" />
    <glyph glyph-name="R" unicode="R" 
d="M924 0h-271l-108 715h-162v-715h-272v1935h395q184 0 285.5 -97t101.5 -286v-430q0 -184 -115 -291zM385 946h80q152 0 151 168v420q0 166 -151 166h-80v-754z" />
    <glyph glyph-name="S" unicode="S" horiz-adv-x="970" 
d="M872 1286h-268v311q0 117 -121 117q-55 0 -84.5 -28.5t-29.5 -71.5v-303q0 -55 23.5 -85t80.5 -57l141 -55q141 -57 209 -135t68 -229v-394q0 -172 -107.5 -273t-287.5 -101q-182 0 -288 93t-106 251v397h271v-377q0 -55 31.5 -91t91.5 -36q53 0 86.5 35t33.5 86v369
q0 109 -122 159l-150 54q-129 47 -188.5 129t-59.5 223v330q0 150 99.5 249t291.5 99q186 0 285.5 -89t99.5 -239v-338z" />
    <glyph glyph-name="T" unicode="T" horiz-adv-x="815" 
d="M809 1935v-235h-264v-1700h-273v1698h-266v237h803z" />
    <glyph glyph-name="U" unicode="U" 
d="M874 1935v-1601q0 -172 -100 -262t-285 -90q-182 0 -282.5 89t-100.5 259v1605h273v-1583q0 -68 31.5 -100.5t81.5 -32.5q113 0 112 133v1583h270z" />
    <glyph glyph-name="V" unicode="V" horiz-adv-x="915" 
d="M627 1937h286l-251 -1937h-408l-250 1935h287l108 -1126l54 -436h20l49 436z" />
    <glyph glyph-name="W" unicode="W" horiz-adv-x="1476" 
d="M1049 578h20l27 368l94 989h287l-236 -1933h-340l-119 959l-37 419h-16l-35 -419l-121 -961h-340l-229 1935h287l90 -989l29 -366h18l37 366l129 989h293l129 -989z" />
    <glyph glyph-name="X" unicode="X" horiz-adv-x="940" 
d="M457 741l-33 -133l-121 -608h-291l283 1018l-250 917h295l100 -524l31 -127h21l28 127l103 524h280l-256 -921l273 -1014h-295l-113 608l-33 133h-22z" />
    <glyph glyph-name="Y" unicode="Y" horiz-adv-x="968" 
d="M500 1057l49 258l108 620l299 2l-335 -1386v-551h-273v557l-334 1380l305 -2l111 -620l49 -258h21z" />
    <glyph glyph-name="Z" unicode="Z" horiz-adv-x="841" 
d="M360 236h433v-236h-740v215l412 1485h-406v235h705l-2 -219z" />
    <glyph glyph-name="bracketleft" unicode="[" horiz-adv-x="604" 
d="M383 1747v-1753h135v-199h-407v2151h407v-199h-135z" />
    <glyph glyph-name="backslash" unicode="\" horiz-adv-x="790" 
d="M532 -205l-516 2151h258l517 -2151h-259z" />
    <glyph glyph-name="bracketright" unicode="]" horiz-adv-x="602" 
d="M84 1946h408v-2151h-408v199h135v1753h-135v199z" />
    <glyph glyph-name="asciicircum" unicode="^" horiz-adv-x="573" 
d="M516 1735h-108l-121 102l-117 -102h-115l150 166h170z" />
    <glyph glyph-name="underscore" unicode="_" horiz-adv-x="741" 
d="M702 51v-209h-661v209h661z" />
    <glyph glyph-name="a" unicode="a" horiz-adv-x="911" 
d="M590 0l-25 168q-80 -186 -258 -186q-104 0 -176 73.5t-72 202.5v342q0 272 260 365l236 77v338q0 96 -98 97q-51 0 -77 -28t-26 -71v-291h-258v308q0 137 89 220t272 83q367 0 366 -346v-1352h-233zM557 813l-131 -43q-100 -39 -100 -156v-309q0 -43 22.5 -69.5
t65.5 -26.5q55 0 99 46t44 124v434z" />
    <glyph glyph-name="b" unicode="b" horiz-adv-x="927" 
d="M606 1698q109 0 176.5 -78t67.5 -236v-1087q0 -158 -67.5 -235.5t-176.5 -77.5q-160 -2 -241 174l-7 -158h-258v1946h267v-414q47 80 100 123t139 43zM477 1470q-111 0 -110 -153v-952q0 -156 110 -156q104 0 105 145v971q-1 145 -105 145z" />
    <glyph glyph-name="c" unicode="c" horiz-adv-x="911" 
d="M836 788v-446q0 -172 -92.5 -266t-274.5 -94q-186 0 -288.5 103t-102.5 292v907q0 201 101.5 307.5t289.5 106.5q182 0 274.5 -92.5t92.5 -262.5v-385h-261v355q0 160 -108 160q-119 0 -119 -160v-944q0 -160 119 -160q109 0 108 160v419h261z" />
    <glyph glyph-name="d" unicode="d" horiz-adv-x="927" 
d="M322 1698q86 0 139 -43t100 -123v414h266v-1946h-266v158q-82 -176 -239 -174q-109 0 -176.5 76.5t-67.5 236.5v1087q0 160 67.5 237t176.5 77zM451 1470q-104 0 -105 -145v-971q0 -145 105 -145q111 0 110 156v952q1 153 -110 153z" />
    <glyph glyph-name="e" unicode="e" horiz-adv-x="915" 
d="M463 1698q375 0 375 -391v-486h-490v-452q0 -160 121 -160q109 0 109 125v383h260v-402q0 -147 -100.5 -240t-268.5 -93q-190 0 -290.5 103t-100.5 292v907q0 201 100.5 307.5t284.5 106.5zM465 1477q-57 0 -87 -42t-30 -108v-293h225v293q1 150 -108 150z" />
    <glyph glyph-name="f" unicode="f" horiz-adv-x="655" 
d="M485 1810q-53 0 -53 -47v-82h217v-219h-217v-1460l-266 -2v1462h-154v219h154v93q0 172 219 172h264v-136h-164z" />
    <glyph glyph-name="g" unicode="g" horiz-adv-x="927" 
d="M592 1683h235l2 -1579q-2 -170 -93 -249.5t-234 -79.5h-348v223h276q133 0 133 129v149q-49 -94 -102 -139t-142 -45q-106 2 -174.5 78t-68.5 225v1000q0 152 68.5 227.5t174.5 75.5q145 0 244 -176zM449 1470q-47 0 -76 -34.5t-29 -104.5v-866q0 -145 105 -146
q111 0 110 156v842q1 153 -110 153z" />
    <glyph glyph-name="h" unicode="h" horiz-adv-x="927" 
d="M629 1698q96 0 154.5 -64.5t58.5 -199.5v-1434h-267l-2 1362q0 100 -90 100q-49 0 -82.5 -35.5t-33.5 -101.5v-1325h-267v1946h267v-428q35 74 104.5 128t157.5 52z" />
    <glyph glyph-name="i" unicode="i" horiz-adv-x="466" 
d="M100 1946h267v-197h-267v197zM100 1681h267v-1681h-267v1681z" />
    <glyph glyph-name="j" unicode="j" horiz-adv-x="487" 
d="M123 1946h266v-197h-266v197zM123 1681h266v-1673q0 -109 -64.5 -171t-170.5 -62h-160v225h67q33 0 47.5 17.5t14.5 64.5v1599z" />
    <glyph glyph-name="k" unicode="k" horiz-adv-x="935" 
d="M369 799v-799h-269v1946h269v-983h18l231 718h287l-264 -784l283 -897h-299l-236 799h-20z" />
    <glyph glyph-name="l" unicode="l" horiz-adv-x="466" 
d="M100 1946h267v-1946h-267v1946z" />
    <glyph glyph-name="m" unicode="m" horiz-adv-x="1392" 
d="M1094 1698q96 0 153.5 -64.5t57.5 -199.5v-1434h-267v1362q0 100 -84 100q-49 0 -83.5 -35.5t-34.5 -99.5v-1327h-267l-2 1362q0 100 -84 100q-49 0 -82.5 -35.5t-33.5 -101.5v-1325h-267v1681h236l24 -163q43 76 111 128t147 52q88 0 135.5 -41t69.5 -137
q111 180 271 178z" />
    <glyph glyph-name="n" unicode="n" horiz-adv-x="927" 
d="M629 1698q96 0 154.5 -64.5t58.5 -199.5v-1434h-267v1362q0 100 -92 100q-49 0 -82.5 -35.5t-33.5 -101.5v-1325h-267v1681h236l24 -163q37 72 109 127t160 53z" />
    <glyph glyph-name="o" unicode="o" horiz-adv-x="923" 
d="M463 1698q182 0 282.5 -104.5t100.5 -299.5v-907q0 -195 -100.5 -300t-282.5 -105q-184 0 -284.5 105.5t-100.5 299.5v907q0 195 100.5 299.5t284.5 104.5zM573 369l2 944q0 160 -112 160q-117 0 -117 -160l-2 -944q0 -78 32 -119t87 -41q110 0 110 160z" />
    <glyph glyph-name="p" unicode="p" horiz-adv-x="927" 
d="M606 -16q-86 0 -139 43t-100 123v-355h-267v1886h236l22 -157q84 176 248 174q109 0 176.5 -78t67.5 -236v-1087q0 -158 -67.5 -235.5t-176.5 -77.5zM477 211q104 0 105 145v971q0 145 -105 146q-111 0 -110 -156v-952q-1 -154 110 -154z" />
    <glyph glyph-name="q" unicode="q" horiz-adv-x="927" 
d="M322 -16q-109 0 -176.5 76.5t-67.5 236.5v1087q0 160 67.5 237t176.5 77q164 2 247 -174l23 157h235v-1886h-266v355q-47 -80 -100 -123t-139 -43zM451 211q111 0 110 154v952q0 156 -110 156q-104 0 -105 -146v-971q1 -145 105 -145z" />
    <glyph glyph-name="r" unicode="r" horiz-adv-x="878" 
d="M618 1698q94 0 151.5 -68.5t57.5 -216.5v-663h-266v596q0 61 -18.5 88.5t-63.5 27.5q-47 0 -79.5 -45t-32.5 -125v-1292h-267v1681h236l18 -163q55 90 111.5 135t152.5 45z" />
    <glyph glyph-name="s" unicode="s" horiz-adv-x="888" 
d="M592 975q123 -37 181 -115t58 -209v-332q0 -156 -104 -246.5t-274 -90.5q-180 0 -281.5 82.5t-101.5 257.5v331h262v-346q0 -45 31.5 -71.5t80.5 -26.5q53 0 85 26.5t32 67.5v315q0 86 -106 123l-174 47q-115 33 -167.5 108t-52.5 202v272q0 145 101.5 236.5t277.5 91.5
q182 0 275.5 -84t93.5 -215v-293h-260v264q0 49 -31 78t-78 29q-51 0 -80.5 -25t-29.5 -63v-261q0 -43 20.5 -66.5t71.5 -39.5z" />
    <glyph glyph-name="t" unicode="t" horiz-adv-x="669" 
d="M641 1462h-209v-1110q0 -117 98 -116h117v-236h-176q-150 0 -227.5 76t-77.5 213v1173h-152v219q127 0 167 48.5t61 195.5h196v-244h203v-219z" />
    <glyph glyph-name="u" unicode="u" horiz-adv-x="927" 
d="M563 1681h266v-1681h-235l-27 164q-37 -72 -108.5 -127t-157.5 -53q-213 0 -213 274v1423h266v-1362q0 -100 90 -100q51 0 85 36t34 101v1325z" />
    <glyph glyph-name="v" unicode="v" horiz-adv-x="899" 
d="M459 420l33 352l96 914h276l-258 -1686h-315l-256 1686h274l99 -908l34 -358h17z" />
    <glyph glyph-name="w" unicode="w" horiz-adv-x="1337" 
d="M954 551l17 260l59 875h273l-195 -1686h-293l-100 799l-29 303h-27l-30 -303l-103 -799h-299l-192 1686h272l68 -875l18 -260h21l22 260l123 875h229l117 -875l25 -260h24z" />
    <glyph glyph-name="x" unicode="x" horiz-adv-x="901" 
d="M438 594l-24 -102l-109 -494h-278l264 881l-240 802h285l90 -444l25 -94h18l23 94l90 444h270l-240 -780l262 -901h-284l-109 492l-24 102h-19z" />
    <glyph glyph-name="y" unicode="y" horiz-adv-x="886" 
d="M461 489l43 363l69 829h279l-231 -1583q-70 -324 -357 -323h-219v223h141q74 0 105 57l-256 1626h276l86 -829l43 -363h21z" />
    <glyph glyph-name="z" unicode="z" horiz-adv-x="761" 
d="M330 221h391v-221h-674v201l369 1259h-357v221h650v-202z" />
    <glyph glyph-name="bar" unicode="|" horiz-adv-x="483" 
d="M111 1935h262v-2140h-262v2140z" />
    <glyph glyph-name="exclamdown" unicode="&#xa1;" horiz-adv-x="493" 
d="M111 1681h272v-313h-272v313zM143 1233h207l31 -604v-883h-270v883z" />
    <glyph glyph-name="cent" unicode="&#xa2;" horiz-adv-x="923" 
d="M836 958h-261v355q0 160 -108 160q-119 0 -119 -160v-944q0 -160 119 -160q109 0 108 160v419h261v-446q0 -160 -81 -254t-243 -104v-189h-96v189q-162 14 -250 116.5t-88 276.5v907q0 186 87 290.5t251 121.5v250h96v-250q160 -10 242 -101.5t82 -251.5v-385z" />
    <glyph glyph-name="sterling" unicode="&#xa3;" horiz-adv-x="925" 
d="M365 221h528v-221l-799 4v186q43 127 74 324t31 352v21h-133v92h118q-4 23 -27.5 98.5t-34.5 143t-11 153.5v219q0 168 105.5 263.5t289.5 95.5q180 0 279.5 -96.5t99.5 -256.5v-370h-262v348q0 143 -117 143q-49 0 -86 -33.5t-37 -101.5v-207q0 -94 34 -223t40 -176h342
v-92h-336q-4 -398 -98 -666z" />
    <glyph glyph-name="yen" unicode="&#xa5;" horiz-adv-x="968" 
d="M956 1937l-294 -1214h231v-92h-254l-18 -80v-31h272v-92h-272v-428h-273v428h-264v92h264v37l-18 74h-246v92h223l-293 1214l305 -2l111 -620l49 -258h21l49 258l108 620z" />
    <glyph glyph-name="brokenbar" unicode="&#xa6;" horiz-adv-x="483" 
d="M111 1935h262v-901h-262v901zM111 696h262v-901h-262v901z" />
    <glyph glyph-name="section" unicode="&#xa7;" horiz-adv-x="901" 
d="M809 1382h-252v277q0 47 -30.5 73.5t-84 26.5t-85 -28.5t-31.5 -73.5v-260q0 -113 108 -137l164 -39q236 -47 236 -279v-295q0 -90 -32 -146.5t-102 -97.5q74 -41 104 -95t30 -138v-346q0 -162 -106.5 -248t-285.5 -84q-176 0 -275 83t-99 230v345h262v-336
q0 -47 30.5 -77t81.5 -30q119 0 119 105v317q0 106 -110 133l-129 31q-119 23 -187.5 101.5t-68.5 201.5v287q0 174 141 231q-141 76 -141 244v287q0 141 99 228t277 87q168 0 267.5 -83t99.5 -220v-275zM326 905v-289q0 -106 116 -106q121 0 121 104v293q0 47 -32.5 74
t-88.5 27q-53 0 -84.5 -29t-31.5 -74z" />
    <glyph glyph-name="copyright" unicode="&#xa9;" horiz-adv-x="1368" 
d="M684 1825q307 0 474 -169t167 -435v-633q0 -266 -167 -436t-474 -170t-474 170t-167 436v633q0 266 167 435t474 169zM1112 592v633q0 188 -108.5 301.5t-319.5 113.5t-319.5 -113.5t-108.5 -301.5v-633q0 -195 108.5 -310.5t319.5 -115.5t319.5 115.5t108.5 310.5z
M985 840v-275q0 -137 -79 -210.5t-224 -73.5q-143 0 -228 80.5t-85 232.5v627q0 152 85 231.5t230 79.5q143 0 222 -74t79 -211v-268h-213v274q0 49 -24.5 74t-65.5 25q-39 0 -64.5 -28t-25.5 -79v-678q0 -51 25.5 -78.5t66.5 -27.5q39 0 63.5 25.5t24.5 74.5v279h213z" />
    <glyph glyph-name="guillemotleft" unicode="&#xab;" horiz-adv-x="1206" 
d="M352 842h-272l285 839h276zM848 842h-273l285 839h277zM352 840l289 -840h-276l-285 840h272zM848 840l289 -840h-277l-285 840h273z" />
    <glyph glyph-name="registered" unicode="&#xae;" horiz-adv-x="884" 
d="M442.5 1958q198.5 0 307 -110.5t108.5 -288.5v-297q0 -178 -108.5 -290t-307 -112t-307 111.5t-108.5 290.5v297q0 176 108.5 287.5t307 111.5zM719 1255v312q0 121 -69.5 195.5t-207 74.5t-207 -74.5t-69.5 -195.5v-312q0 -125 69.5 -200.5t207 -75.5t207 75.5
t69.5 200.5zM627 1098h-121q-16 25 -17 69v117q0 55 -53 55h-35v-241h-118v624h184q68 0 105.5 -36.5t37.5 -96.5v-82q0 -92 -88 -110q86 -10 86 -109v-119q1 -42 19 -71zM401 1620v-188h35q53 0 53 59v74q0 29 -13 43t-40 12h-35z" />
    <glyph glyph-name="degree" unicode="&#xb0;" horiz-adv-x="716" 
d="M360 1331q-135 0 -226 88t-91 219q0 133 91 220.5t226 87.5q131 0 221.5 -87t90.5 -221q0 -131 -90.5 -219t-221.5 -88zM356 1524q47 0 82 33.5t33 80.5q-2 49 -35 83t-80 34q-51 0 -83.5 -33.5t-32.5 -83t33.5 -82t82.5 -32.5z" />
    <glyph glyph-name="periodcentered" unicode="&#xb7;" horiz-adv-x="514" 
d="M395 1176v-314h-274v314h274z" />
    <glyph glyph-name="guillemotright" unicode="&#xbb;" horiz-adv-x="1206" 
d="M358 842l-288 839h276l285 -839h-273zM854 842l-289 839h277l284 -839h-272zM358 840h273l-285 -840h-276zM854 840h272l-284 -840h-277z" />
    <glyph glyph-name="questiondown" unicode="&#xbf;" horiz-adv-x="890" 
d="M330 1368v313h274v-313h-274zM590 1241q-8 -156 -49 -293t-86 -216t-82 -168t-37 -161v-356q0 -51 32.5 -78.5t80.5 -27.5q53 0 88.5 29.5t35.5 88.5v383h258v-389q0 -152 -100 -237.5t-282 -85.5q-180 0 -280.5 76.5t-100.5 222.5v358q0 92 26.5 177t65.5 154.5
t79 142.5t70.5 171t36.5 209h244z" />
    <glyph glyph-name="Agrave" unicode="&#xc0;" horiz-adv-x="948" 
d="M553 1989h-98l-189 165h176zM664 0l-46 438l-288 4l-47 -442h-279l270 1935h406l266 -1935h-282zM354 676h240l-70 674l-41 325h-18l-41 -325z" />
    <glyph glyph-name="Aacute" unicode="&#xc1;" horiz-adv-x="948" 
d="M688 2154l-188 -165h-99l111 165h176zM664 0l-46 438l-288 4l-47 -442h-279l270 1935h406l266 -1935h-282zM354 676h240l-70 674l-41 325h-18l-41 -325z" />
    <glyph glyph-name="Acircumflex" unicode="&#xc2;" horiz-adv-x="948" 
d="M473 2091l-117 -102h-114l149 165h170l141 -165h-108zM664 0l-46 438l-288 4l-47 -442h-279l270 1935h406l266 -1935h-282zM354 676h240l-70 674l-41 325h-18l-41 -325z" />
    <glyph glyph-name="Atilde" unicode="&#xc3;" horiz-adv-x="948" 
d="M401 2066q-35 0 -34 -71h-97q0 158 123 157q25 0 49.5 -9t37 -16t36 -25.5t27.5 -20.5q23 -18 35 -19q35 0 34 74h97q0 -160 -125 -160q-25 0 -48.5 9.5t-37 17.5t-35 25.5t-27.5 21.5q-21 16 -35 16zM664 0l-46 438l-288 4l-47 -442h-279l270 1935h406l266 -1935h-282z
M354 676h240l-70 674l-41 325h-18l-41 -325z" />
    <glyph glyph-name="Adieresis" unicode="&#xc4;" horiz-adv-x="948" 
d="M432 2154v-157h-135v157h135zM651 2154v-157h-135v157h135zM664 0l-46 438l-288 4l-47 -442h-279l270 1935h406l266 -1935h-282zM354 676h240l-70 674l-41 325h-18l-41 -325z" />
    <glyph glyph-name="Aring" unicode="&#xc5;" horiz-adv-x="948" 
d="M475 1946q-47 0 -77.5 29.5t-30.5 74.5t30.5 74.5t77.5 29.5q45 0 76 -29.5t31 -74.5t-31 -74.5t-76 -29.5zM473 2101q-23 0 -37 -14t-14 -36.5t14.5 -37t36.5 -14.5q20 0 35.5 15.5t15.5 35.5q-2 23 -16.5 37t-34.5 14zM664 0l-46 438l-288 4l-47 -442h-279l270 1935
h406l266 -1935h-282zM354 676h240l-70 674l-41 325h-18l-41 -325z" />
    <glyph glyph-name="AE" unicode="&#xc6;" horiz-adv-x="1339" 
d="M924 236h350v-236h-623v403h-297l-69 -403h-281l508 1935h758v-235h-346v-588h317v-231h-317v-645zM436 629h215v1032h-16l-84 -365z" />
    <glyph glyph-name="Ccedilla" unicode="&#xc7;" horiz-adv-x="964" 
d="M877 1112h-269v459q0 66 -31.5 104.5t-85 38.5t-88 -39t-34.5 -104v-1206q0 -66 34.5 -106t88 -40t85 40t31.5 106v516h269v-525q0 -178 -100.5 -276t-287.5 -98h-6l-53 -86q47 41 90 41q74 0 74 -74v-21q0 -51 -37 -79.5t-94 -28.5q-61 0 -98 27.5t-37 76.5v12h110v-28
q0 -27 23 -27q20 0 20 27v28q0 31 -26 31h-117l63 107q-150 25 -228.5 133t-78.5 285v1124q0 201 102.5 311.5t292.5 110.5q186 0 287 -96.5t101 -274.5v-469z" />
    <glyph glyph-name="Egrave" unicode="&#xc8;" horiz-adv-x="800" 
d="M424 2154l111 -165h-99l-188 165h176zM383 236h350v-236h-622v1935h618v-235h-346v-588h317v-231h-317v-645z" />
    <glyph glyph-name="Eacute" unicode="&#xc9;" horiz-adv-x="800" 
d="M494 2154h176l-189 -165h-98zM383 236h350v-236h-622v1935h618v-235h-346v-588h317v-231h-317v-645z" />
    <glyph glyph-name="Ecircumflex" unicode="&#xca;" horiz-adv-x="800" 
d="M684 1989h-109l-120 102l-117 -102h-115l150 165h170zM383 236h350v-236h-622v1935h618v-235h-346v-588h317v-231h-317v-645z" />
    <glyph glyph-name="Edieresis" unicode="&#xcb;" horiz-adv-x="800" 
d="M279 2154h135v-157h-135v157zM498 2154h135v-157h-135v157zM383 236h350v-236h-622v1935h618v-235h-346v-588h317v-231h-317v-645z" />
    <glyph glyph-name="Igrave" unicode="&#xcc;" horiz-adv-x="493" 
d="M217 2154l111 -165h-99l-188 165h176zM111 1935h272v-1935h-272v1935z" />
    <glyph glyph-name="Iacute" unicode="&#xcd;" horiz-adv-x="493" 
d="M287 2154h176l-189 -165h-98zM111 1935h272v-1935h-272v1935z" />
    <glyph glyph-name="Icircumflex" unicode="&#xce;" horiz-adv-x="493" 
d="M477 1989h-108l-121 102l-117 -102h-115l150 165h170zM111 1935h272v-1935h-272v1935z" />
    <glyph glyph-name="Idieresis" unicode="&#xcf;" horiz-adv-x="493" 
d="M72 2154h135v-157h-135v157zM291 2154h135v-157h-135v157zM111 1935h272v-1935h-272v1935z" />
    <glyph glyph-name="Eth" unicode="&#xd0;" 
d="M518 1935q174 0 272.5 -104.5t98.5 -298.5v-1129q0 -195 -98.5 -299t-272.5 -104h-407v924h-99v90h99v921h407zM614 377v1184q0 66 -32.5 102.5t-85.5 36.5h-113v-686h133v-90h-133v-688h111q53 0 86.5 36.5t33.5 104.5z" />
    <glyph glyph-name="Ntilde" unicode="&#xd1;" horiz-adv-x="1009" 
d="M446 2066q-35 0 -34 -71h-97q0 158 123 157q25 0 49.5 -9t37 -16t36 -25.5t27.5 -20.5q23 -18 35 -19q35 0 34 74h97q0 -160 -125 -160q-25 0 -48.5 9.5t-37 17.5t-35 25.5t-27.5 21.5q-21 16 -35 16zM643 1935h254v-1935h-264l-266 1196h-17l15 -528v-668h-254v1935h292
l242 -1095h17l-19 555v540z" />
    <glyph glyph-name="Ograve" unicode="&#xd2;" 
d="M461 2161l110 -166h-98l-188 166h176zM489 1952q193 0 296.5 -110.5t103.5 -311.5v-1124q0 -203 -104.5 -313.5t-295 -110.5t-293 110.5t-102.5 313.5v1124q0 201 102.5 311.5t292.5 110.5zM614 365v1206q0 66 -32.5 104.5t-88 38.5t-90 -39t-34.5 -104v-1206
q0 -66 34.5 -106t88.5 -40q55 0 88.5 40t33.5 106z" />
    <glyph glyph-name="Oacute" unicode="&#xd3;" 
d="M530 2161h177l-189 -166h-98zM489 1952q193 0 296.5 -110.5t103.5 -311.5v-1124q0 -203 -104.5 -313.5t-295 -110.5t-293 110.5t-102.5 313.5v1124q0 201 102.5 311.5t292.5 110.5zM614 365v1206q0 66 -32.5 104.5t-88 38.5t-90 -39t-34.5 -104v-1206q0 -66 34.5 -106
t88.5 -40q55 0 88.5 40t33.5 106z" />
    <glyph glyph-name="Ocircumflex" unicode="&#xd4;" 
d="M721 1995h-109l-120 102l-117 -102h-115l150 166h170zM489 1952q193 0 296.5 -110.5t103.5 -311.5v-1124q0 -203 -104.5 -313.5t-295 -110.5t-293 110.5t-102.5 313.5v1124q0 201 102.5 311.5t292.5 110.5zM614 365v1206q0 66 -32.5 104.5t-88 38.5t-90 -39t-34.5 -104
v-1206q0 -66 34.5 -106t88.5 -40q55 0 88.5 40t33.5 106z" />
    <glyph glyph-name="Otilde" unicode="&#xd5;" 
d="M420 2073q-35 0 -35 -72h-96q0 158 123 158q25 0 49 -9.5t36.5 -16.5t36 -25.5t27.5 -20.5q23 -18 35 -19q35 0 35 74h96q0 -160 -125 -160q-25 0 -48.5 9.5t-36.5 17.5t-34.5 25.5t-27.5 21.5q-21 17 -35 17zM489 1952q193 0 296.5 -110.5t103.5 -311.5v-1124
q0 -203 -104.5 -313.5t-295 -110.5t-293 110.5t-102.5 313.5v1124q0 201 102.5 311.5t292.5 110.5zM614 365v1206q0 66 -32.5 104.5t-88 38.5t-90 -39t-34.5 -104v-1206q0 -66 34.5 -106t88.5 -40q55 0 88.5 40t33.5 106z" />
    <glyph glyph-name="Odieresis" unicode="&#xd6;" 
d="M315 2161h136v-158h-136v158zM535 2161h135v-158h-135v158zM489 1952q193 0 296.5 -110.5t103.5 -311.5v-1124q0 -203 -104.5 -313.5t-295 -110.5t-293 110.5t-102.5 313.5v1124q0 201 102.5 311.5t292.5 110.5zM614 365v1206q0 66 -32.5 104.5t-88 38.5t-90 -39
t-34.5 -104v-1206q0 -66 34.5 -106t88.5 -40q55 0 88.5 40t33.5 106z" />
    <glyph glyph-name="Oslash" unicode="&#xd8;" 
d="M715 1898q174 -104 174 -368v-1124q0 -203 -104.5 -313.5t-295.5 -110.5q-63 0 -114 12l-33 -164h-106l43 199q-184 100 -185 377v1124q0 201 102.5 311.5t292.5 110.5q72 0 127 -15l39 187h105zM614 365v1206q0 66 -32.5 104.5t-88 38.5t-90 -39t-34.5 -104v-1206
q0 -66 34.5 -106t88.5 -40q55 0 88.5 40t33.5 106z" />
    <glyph glyph-name="Ugrave" unicode="&#xd9;" 
d="M461 2154l110 -165h-98l-188 165h176zM874 1935v-1601q0 -172 -100 -262t-285 -90q-182 0 -282.5 89t-100.5 259v1605h273v-1583q0 -68 31.5 -100.5t81.5 -32.5q113 0 112 133v1583h270z" />
    <glyph glyph-name="Uacute" unicode="&#xda;" 
d="M530 2154h177l-189 -165h-98zM874 1935v-1601q0 -172 -100 -262t-285 -90q-182 0 -282.5 89t-100.5 259v1605h273v-1583q0 -68 31.5 -100.5t81.5 -32.5q113 0 112 133v1583h270z" />
    <glyph glyph-name="Ucircumflex" unicode="&#xdb;" 
d="M721 1989h-109l-120 102l-117 -102h-115l150 165h170zM874 1935v-1601q0 -172 -100 -262t-285 -90q-182 0 -282.5 89t-100.5 259v1605h273v-1583q0 -68 31.5 -100.5t81.5 -32.5q113 0 112 133v1583h270z" />
    <glyph glyph-name="Udieresis" unicode="&#xdc;" 
d="M315 2154h136v-157h-136v157zM535 2154h135v-157h-135v157zM874 1935v-1601q0 -172 -100 -262t-285 -90q-182 0 -282.5 89t-100.5 259v1605h273v-1583q0 -68 31.5 -100.5t81.5 -32.5q113 0 112 133v1583h270z" />
    <glyph glyph-name="Yacute" unicode="&#xdd;" horiz-adv-x="968" 
d="M522 2154h176l-188 -165h-98zM500 1057l49 258l108 620l299 2l-335 -1386v-551h-273v557l-334 1380l305 -2l111 -620l49 -258h21z" />
    <glyph glyph-name="Thorn" unicode="&#xde;" horiz-adv-x="958" 
d="M504 1683q186 0 290.5 -100t104.5 -289v-452q0 -195 -108.5 -297.5t-284.5 -102.5h-123v-442h-272v1935h272v-252h121zM623 846v438q0 78 -37 120t-105 42h-98v-768h98q66 0 104 44t38 124z" />
    <glyph glyph-name="germandbls" unicode="&#xdf;" horiz-adv-x="1777" 
d="M592 975q123 -37 181 -115t58 -209v-332q0 -156 -104 -246.5t-274 -90.5q-180 0 -281.5 82.5t-101.5 257.5v331h262v-346q0 -45 31.5 -71.5t80.5 -26.5q53 0 85 26.5t32 67.5v315q0 86 -106 123l-174 47q-115 33 -167.5 108t-52.5 202v272q0 145 101.5 236.5t277.5 91.5
q182 0 275.5 -84t93.5 -215v-293h-260v264q0 49 -31 78t-78 29q-51 0 -80.5 -25t-29.5 -63v-261q0 -43 20.5 -66.5t71.5 -39.5zM1481 975q123 -37 181 -115t58 -209v-332q0 -156 -104.5 -246.5t-274.5 -90.5q-180 0 -281.5 82.5t-101.5 257.5v331h263v-346q0 -45 31.5 -71.5
t80.5 -26.5q53 0 85 26.5t32 67.5v315q0 86 -107 123l-174 47q-115 33 -167 108t-52 202v272q0 145 101.5 236.5t277.5 91.5q182 0 275.5 -84t93.5 -215v-293h-260v264q0 49 -31 78t-78 29q-51 0 -80.5 -25t-29.5 -63v-261q0 -43 20.5 -66.5t71.5 -39.5z" />
    <glyph glyph-name="agrave" unicode="&#xe0;" horiz-adv-x="911" 
d="M442 1901l111 -166h-98l-189 166h176zM590 0l-25 168q-80 -186 -258 -186q-104 0 -176 73.5t-72 202.5v342q0 272 260 365l236 77v338q0 96 -98 97q-51 0 -77 -28t-26 -71v-291h-258v308q0 137 89 220t272 83q367 0 366 -346v-1352h-233zM557 813l-131 -43
q-100 -39 -100 -156v-309q0 -43 22.5 -69.5t65.5 -26.5q55 0 99 46t44 124v434z" />
    <glyph glyph-name="aacute" unicode="&#xe1;" horiz-adv-x="911" 
d="M512 1901h176l-188 -166h-99zM590 0l-25 168q-80 -186 -258 -186q-104 0 -176 73.5t-72 202.5v342q0 272 260 365l236 77v338q0 96 -98 97q-51 0 -77 -28t-26 -71v-291h-258v308q0 137 89 220t272 83q367 0 366 -346v-1352h-233zM557 813l-131 -43q-100 -39 -100 -156
v-309q0 -43 22.5 -69.5t65.5 -26.5q55 0 99 46t44 124v434z" />
    <glyph glyph-name="acircumflex" unicode="&#xe2;" horiz-adv-x="911" 
d="M702 1735h-108l-121 102l-117 -102h-114l149 166h170zM590 0l-25 168q-80 -186 -258 -186q-104 0 -176 73.5t-72 202.5v342q0 272 260 365l236 77v338q0 96 -98 97q-51 0 -77 -28t-26 -71v-291h-258v308q0 137 89 220t272 83q367 0 366 -346v-1352h-233zM557 813
l-131 -43q-100 -39 -100 -156v-309q0 -43 22.5 -69.5t65.5 -26.5q55 0 99 46t44 124v434z" />
    <glyph glyph-name="atilde" unicode="&#xe3;" horiz-adv-x="911" 
d="M401 1812q-35 0 -34 -71h-97q0 158 123 157q25 0 49.5 -9t37 -16t36 -25.5t27.5 -20.5q23 -18 35 -19q35 0 34 74h97q0 -160 -125 -160q-25 0 -48.5 9.5t-37 17.5t-35 25.5t-27.5 21.5q-21 16 -35 16zM457 1698q367 0 366 -346v-1352h-233l-25 168q-80 -186 -258 -186
q-104 0 -176 73.5t-72 202.5v342q0 272 260 365l236 77v338q0 96 -98 97q-51 0 -77 -28t-26 -71v-291h-258v308q0 137 89.5 220t271.5 83zM557 379v434l-131 -43q-100 -39 -100 -156v-309q0 -43 22.5 -69.5t65.5 -26.5q55 0 99 46t44 124z" />
    <glyph glyph-name="adieresis" unicode="&#xe4;" horiz-adv-x="911" 
d="M297 1901h135v-158h-135v158zM516 1901h135v-158h-135v158zM590 0l-25 168q-80 -186 -258 -186q-104 0 -176 73.5t-72 202.5v342q0 272 260 365l236 77v338q0 96 -98 97q-51 0 -77 -28t-26 -71v-291h-258v308q0 137 89 220t272 83q367 0 366 -346v-1352h-233zM557 813
l-131 -43q-100 -39 -100 -156v-309q0 -43 22.5 -69.5t65.5 -26.5q55 0 99 46t44 124v434z" />
    <glyph glyph-name="aring" unicode="&#xe5;" horiz-adv-x="911" 
d="M506 1696q317 -20 317 -344v-1352h-233l-25 168q-80 -186 -258 -186q-104 0 -176 73.5t-72 202.5v342q0 272 260 365l236 77v338q0 96 -98 97q-51 0 -77 -28t-26 -71v-291h-258v308q0 133 84 216t258 87q-72 25 -71 98q0 45 30.5 75t77.5 30q45 0 76 -30t31 -75
q0 -80 -76 -100zM422 1796.5q0 -22.5 14.5 -37t36.5 -14.5q20 0 35.5 15.5t15.5 35.5q-2 23 -16 37t-35 14q-23 0 -37 -14t-14 -36.5zM557 379v434l-131 -43q-100 -39 -100 -156v-309q0 -43 22.5 -69.5t65.5 -26.5q55 0 99 46t44 124z" />
    <glyph glyph-name="ae" unicode="&#xe6;" horiz-adv-x="1376" 
d="M1300 821h-489v-452q0 -160 121 -160q109 0 108 125v383h260v-402q0 -147 -100 -240t-268 -93q-270 0 -357 202q-104 -203 -274 -202q-102 0 -172 73.5t-70 202.5v338q0 246 252 348l226 88v348q0 96 -97 97q-45 0 -69.5 -28t-24.5 -69v-293h-254v308q0 133 92 218
t256 85q150 0 252 -64q90 63 234 64q375 0 374 -391v-486zM928 1477q-57 0 -87 -42t-30 -108v-293h225v293q1 150 -108 150zM539 385v438l-121 -51q-92 -41 -92 -139v-328q0 -96 92 -96q53 0 87 45t34 131z" />
    <glyph glyph-name="ccedilla" unicode="&#xe7;" horiz-adv-x="911" 
d="M836 958h-261v355q0 160 -108 160q-119 0 -119 -160v-944q0 -160 119 -160q109 0 108 160v419h261v-446q0 -172 -92.5 -266t-272.5 -94l-53 -86q47 41 90 41q74 0 74 -74v-21q0 -51 -37 -79.5t-94 -28.5q-61 0 -98.5 27.5t-37.5 76.5v12h111v-28q0 -27 23 -27q20 0 20 27
v28q0 31 -27 31h-116l63 107q-150 20 -230.5 121.5t-80.5 267.5v907q0 201 101.5 307.5t289.5 106.5q182 0 274.5 -92.5t92.5 -262.5v-385z" />
    <glyph glyph-name="egrave" unicode="&#xe8;" horiz-adv-x="915" 
d="M428 1901l111 -166h-99l-188 166h176zM463 1698q375 0 375 -391v-486h-490v-452q0 -160 121 -160q109 0 109 125v383h260v-402q0 -147 -100.5 -240t-268.5 -93q-190 0 -290.5 103t-100.5 292v907q0 201 100.5 307.5t284.5 106.5zM465 1477q-57 0 -87 -42t-30 -108v-293
h225v293q1 150 -108 150z" />
    <glyph glyph-name="eacute" unicode="&#xe9;" horiz-adv-x="915" 
d="M498 1901h176l-189 -166h-98zM463 1698q375 0 375 -391v-486h-490v-452q0 -160 121 -160q109 0 109 125v383h260v-402q0 -147 -100.5 -240t-268.5 -93q-190 0 -290.5 103t-100.5 292v907q0 201 100.5 307.5t284.5 106.5zM465 1477q-57 0 -87 -42t-30 -108v-293h225v293
q1 150 -108 150z" />
    <glyph glyph-name="ecircumflex" unicode="&#xea;" horiz-adv-x="915" 
d="M688 1735h-108l-121 102l-117 -102h-115l150 166h170zM463 1698q375 0 375 -391v-486h-490v-452q0 -160 121 -160q109 0 109 125v383h260v-402q0 -147 -100.5 -240t-268.5 -93q-190 0 -290.5 103t-100.5 292v907q0 201 100.5 307.5t284.5 106.5zM465 1477q-57 0 -87 -42
t-30 -108v-293h225v293q1 150 -108 150z" />
    <glyph glyph-name="edieresis" unicode="&#xeb;" horiz-adv-x="915" 
d="M283 1901h135v-158h-135v158zM502 1901h135v-158h-135v158zM463 1698q375 0 375 -391v-486h-490v-452q0 -160 121 -160q109 0 109 125v383h260v-402q0 -147 -100.5 -240t-268.5 -93q-190 0 -290.5 103t-100.5 292v907q0 201 100.5 307.5t284.5 106.5zM465 1477
q-57 0 -87 -42t-30 -108v-293h225v293q1 150 -108 150z" />
    <glyph glyph-name="igrave" unicode="&#xec;" horiz-adv-x="466" 
d="M203 1901l110 -166h-98l-188 166h176zM100 1681h267v-1681h-267v1681z" />
    <glyph glyph-name="iacute" unicode="&#xed;" horiz-adv-x="466" 
d="M272 1901h177l-189 -166h-98zM100 1681h267v-1681h-267v1681z" />
    <glyph glyph-name="icircumflex" unicode="&#xee;" horiz-adv-x="466" 
d="M463 1735h-109l-121 102l-116 -102h-115l150 166h170zM100 1681h267v-1681h-267v1681z" />
    <glyph glyph-name="idieresis" unicode="&#xef;" horiz-adv-x="466" 
d="M57 1901h136v-158h-136v158zM276 1901h136v-158h-136v158zM100 1681h267v-1681h-267v1681z" />
    <glyph glyph-name="eth" unicode="&#xf0;" horiz-adv-x="915" 
d="M745 1806q92 -147 93 -407l-2 -1037q0 -180 -101.5 -279t-277.5 -99q-379 0 -379 364v1034q0 158 67.5 237t167.5 79q143 0 256 -170q0 102 -71 213l-103 -27l-26 90l67 19q-70 76 -145 123h319q41 -31 68 -58l90 25l29 -92zM569 332v1018q0 63 -30.5 97t-79.5 34
q-51 0 -82 -33t-31 -94v-1026q0 -63 31 -96t82 -33q47 0 78.5 33.5t31.5 99.5z" />
    <glyph glyph-name="ntilde" unicode="&#xf1;" horiz-adv-x="927" 
d="M389 1812q-35 0 -35 -71h-96q0 158 123 157q25 0 49.5 -9t36.5 -16t35.5 -25.5t27.5 -20.5q23 -18 35 -19q35 0 35 74h96q0 -160 -125 -160q-25 0 -48 9.5t-36.5 17.5t-35 25.5t-27.5 21.5q-21 16 -35 16zM629 1698q96 0 154.5 -64.5t58.5 -199.5v-1434h-267v1362
q0 100 -92 100q-49 0 -82.5 -35.5t-33.5 -101.5v-1325h-267v1681h236l24 -163q37 72 109 127t160 53z" />
    <glyph glyph-name="ograve" unicode="&#xf2;" horiz-adv-x="923" 
d="M432 1901l111 -166h-99l-188 166h176zM463 1698q182 0 282.5 -104.5t100.5 -299.5v-907q0 -195 -100.5 -300t-282.5 -105q-184 0 -284.5 105.5t-100.5 299.5v907q0 195 100.5 299.5t284.5 104.5zM573 369l2 944q0 160 -112 160q-117 0 -117 -160l-2 -944q0 -78 32 -119
t87 -41q110 0 110 160z" />
    <glyph glyph-name="oacute" unicode="&#xf3;" horiz-adv-x="923" 
d="M502 1901h176l-189 -166h-98zM463 1698q182 0 282.5 -104.5t100.5 -299.5v-907q0 -195 -100.5 -300t-282.5 -105q-184 0 -284.5 105.5t-100.5 299.5v907q0 195 100.5 299.5t284.5 104.5zM573 369l2 944q0 160 -112 160q-117 0 -117 -160l-2 -944q0 -78 32 -119t87 -41
q110 0 110 160z" />
    <glyph glyph-name="ocircumflex" unicode="&#xf4;" horiz-adv-x="923" 
d="M692 1735h-108l-121 102l-117 -102h-115l150 166h170zM463 1698q182 0 282.5 -104.5t100.5 -299.5v-907q0 -195 -100.5 -300t-282.5 -105q-184 0 -284.5 105.5t-100.5 299.5v907q0 195 100.5 299.5t284.5 104.5zM573 369l2 944q0 160 -112 160q-117 0 -117 -160l-2 -944
q0 -78 32 -119t87 -41q110 0 110 160z" />
    <glyph glyph-name="otilde" unicode="&#xf5;" horiz-adv-x="923" 
d="M391 1812q-35 0 -35 -71h-96q0 158 123 157q25 0 49.5 -9t36.5 -16t35.5 -25.5t27.5 -20.5q23 -18 35 -19q35 0 35 74h96q0 -160 -125 -160q-25 0 -48 9.5t-36.5 17.5t-35 25.5t-27.5 21.5q-21 16 -35 16zM463 1698q182 0 282.5 -104.5t100.5 -299.5v-907
q0 -195 -100.5 -300t-282.5 -105q-184 0 -284.5 105.5t-100.5 299.5v907q0 195 100.5 299.5t284.5 104.5zM573 369l2 944q0 160 -112 160q-117 0 -117 -160l-2 -944q0 -78 32 -119t87 -41q110 0 110 160z" />
    <glyph glyph-name="odieresis" unicode="&#xf6;" horiz-adv-x="923" 
d="M287 1901h135v-158h-135v158zM506 1901h135v-158h-135v158zM463 1698q182 0 282.5 -104.5t100.5 -299.5v-907q0 -195 -100.5 -300t-282.5 -105q-184 0 -284.5 105.5t-100.5 299.5v907q0 195 100.5 299.5t284.5 104.5zM573 369l2 944q0 160 -112 160q-117 0 -117 -160
l-2 -944q0 -78 32 -119t87 -41q110 0 110 160z" />
    <glyph glyph-name="oslash" unicode="&#xf8;" horiz-adv-x="933" 
d="M659 1657q186 -94 187 -363v-907q0 -195 -100.5 -300t-282.5 -105q-41 0 -82 6l-35 -170h-106l41 198q-203 88 -203 371v907q0 195 100.5 299.5t284.5 104.5q39 0 100 -8l41 202h105zM573 369l2 944q0 160 -112 160q-117 0 -117 -160l-2 -944q0 -78 32 -119t87 -41
q110 0 110 160z" />
    <glyph glyph-name="ugrave" unicode="&#xf9;" horiz-adv-x="927" 
d="M424 1901l111 -166h-99l-188 166h176zM563 1681h266v-1681h-235l-27 164q-37 -72 -108.5 -127t-157.5 -53q-213 0 -213 274v1423h266v-1362q0 -100 90 -100q51 0 85 36t34 101v1325z" />
    <glyph glyph-name="uacute" unicode="&#xfa;" horiz-adv-x="927" 
d="M494 1901h176l-189 -166h-98zM563 1681h266v-1681h-235l-27 164q-37 -72 -108.5 -127t-157.5 -53q-213 0 -213 274v1423h266v-1362q0 -100 90 -100q51 0 85 36t34 101v1325z" />
    <glyph glyph-name="ucircumflex" unicode="&#xfb;" horiz-adv-x="927" 
d="M684 1735h-109l-120 102l-117 -102h-115l150 166h170zM563 1681h266v-1681h-235l-27 164q-37 -72 -108.5 -127t-157.5 -53q-213 0 -213 274v1423h266v-1362q0 -100 90 -100q51 0 85 36t34 101v1325z" />
    <glyph glyph-name="udieresis" unicode="&#xfc;" horiz-adv-x="927" 
d="M279 1901h135v-158h-135v158zM498 1901h135v-158h-135v158zM563 1681h266v-1681h-235l-27 164q-37 -72 -108.5 -127t-157.5 -53q-213 0 -213 274v1423h266v-1362q0 -100 90 -100q51 0 85 36t34 101v1325z" />
    <glyph glyph-name="yacute" unicode="&#xfd;" horiz-adv-x="886" 
d="M475 1901h176l-188 -166h-98zM461 489l43 363l69 829h279l-231 -1583q-70 -324 -357 -323h-219v223h141q74 0 105 57l-256 1626h276l86 -829l43 -363h21z" />
    <glyph glyph-name="thorn" unicode="&#xfe;" horiz-adv-x="931" 
d="M606 -16q-86 0 -139 43t-100 123v-355h-267v2151h267v-422q72 176 239 174q109 0 176.5 -78t67.5 -236v-1087q0 -158 -67.5 -235.5t-176.5 -77.5zM477 211q104 0 105 145v971q0 145 -105 146q-111 0 -110 -156v-952q-1 -154 110 -154z" />
    <glyph glyph-name="ydieresis" unicode="&#xff;" horiz-adv-x="886" 
d="M260 1901h135v-158h-135v158zM479 1901h135v-158h-135v158zM461 489l43 363l69 829h279l-231 -1583q-70 -324 -357 -323h-219v223h141q74 0 105 57l-256 1626h276l86 -829l43 -363h21z" />
    <glyph glyph-name="Amacron" unicode="&#x100;" horiz-adv-x="948" 
d="M696 2122v-90h-454v90h454zM664 0l-46 438l-288 4l-47 -442h-279l270 1935h406l266 -1935h-282zM354 676h240l-70 674l-41 325h-18l-41 -325z" />
    <glyph glyph-name="amacron" unicode="&#x101;" horiz-adv-x="911" 
d="M242 1868h454v-90h-454v90zM590 0l-25 168q-80 -186 -258 -186q-104 0 -176 73.5t-72 202.5v342q0 272 260 365l236 77v338q0 96 -98 97q-51 0 -77 -28t-26 -71v-291h-258v308q0 137 89 220t272 83q367 0 366 -346v-1352h-233zM557 813l-131 -43q-100 -39 -100 -156v-309
q0 -43 22.5 -69.5t65.5 -26.5q55 0 99 46t44 124v434z" />
    <glyph glyph-name="Abreve" unicode="&#x102;" horiz-adv-x="948" 
d="M473 1989q-104 0 -167.5 47t-80.5 118h119q29 -82 129 -81q104 0 133 81h115q-14 -72 -78 -118.5t-170 -46.5zM664 0l-46 438l-288 4l-47 -442h-279l270 1935h406l266 -1935h-282zM354 676h240l-70 674l-41 325h-18l-41 -325z" />
    <glyph glyph-name="abreve" unicode="&#x103;" horiz-adv-x="911" 
d="M721 1901q-14 -72 -77.5 -119t-170.5 -47q-104 0 -167.5 47t-80.5 119h119q29 -82 129 -82q104 0 133 82h115zM590 0l-25 168q-80 -186 -258 -186q-104 0 -176 73.5t-72 202.5v342q0 272 260 365l236 77v338q0 96 -98 97q-51 0 -77 -28t-26 -71v-291h-258v308
q0 137 89 220t272 83q367 0 366 -346v-1352h-233zM557 813l-131 -43q-100 -39 -100 -156v-309q0 -43 22.5 -69.5t65.5 -26.5q55 0 99 46t44 124v434z" />
    <glyph glyph-name="Aogonek" unicode="&#x104;" horiz-adv-x="948" 
d="M752 -61q0 -41 47 -41q63 0 127 22v-94q-90 -53 -211 -53q-63 0 -108.5 31.5t-45.5 86.5q0 92 98 140l-41 407l-288 4l-47 -442h-279l270 1935h406l266 -1935h-131q-63 -4 -63 -61zM354 676h240l-70 674l-41 325h-18l-41 -325z" />
    <glyph glyph-name="aogonek" unicode="&#x105;" horiz-adv-x="911" 
d="M678 0q-63 -4 -64 -61q0 -41 48 -41q63 0 126 22v-94q-90 -53 -210 -53q-63 0 -108.5 31.5t-45.5 86.5q0 49 40 96.5t118 61.5l-17 119q-80 -186 -258 -186q-104 0 -176 73.5t-72 202.5v342q0 272 260 365l236 77v338q0 96 -98 97q-51 0 -77 -28t-26 -71v-291h-258v308
q0 137 89 220t272 83q367 0 366 -346v-1352h-145zM557 379v434l-131 -43q-100 -39 -100 -156v-309q0 -43 22.5 -69.5t65.5 -26.5q55 0 99 46t44 124z" />
    <glyph glyph-name="Cacute" unicode="&#x106;" horiz-adv-x="964" 
d="M522 2161h176l-188 -166h-98zM877 881v-525q0 -178 -100.5 -276t-287.5 -98q-190 0 -292.5 110.5t-102.5 313.5v1124q0 201 102.5 311.5t292.5 110.5q186 0 287 -96.5t101 -274.5v-469h-269v459q0 66 -31.5 104.5t-85 38.5t-88 -39t-34.5 -104v-1206q0 -66 34.5 -106
t88 -40t85 40t31.5 106v516h269z" />
    <glyph glyph-name="cacute" unicode="&#x107;" horiz-adv-x="911" 
d="M516 1901h176l-188 -166h-98zM836 788v-446q0 -172 -92.5 -266t-274.5 -94q-186 0 -288.5 103t-102.5 292v907q0 201 101.5 307.5t289.5 106.5q182 0 274.5 -92.5t92.5 -262.5v-385h-261v355q0 160 -108 160q-119 0 -119 -160v-944q0 -160 119 -160q109 0 108 160v419
h261z" />
    <glyph glyph-name="Cdotaccent" unicode="&#x10a;" horiz-adv-x="964" 
d="M418 2161h133v-158h-133v158zM877 881v-525q0 -178 -100.5 -276t-287.5 -98q-190 0 -292.5 110.5t-102.5 313.5v1124q0 201 102.5 311.5t292.5 110.5q186 0 287 -96.5t101 -274.5v-469h-269v459q0 66 -31.5 104.5t-85 38.5t-88 -39t-34.5 -104v-1206q0 -66 34.5 -106
t88 -40t85 40t31.5 106v516h269z" />
    <glyph glyph-name="cdotaccent" unicode="&#x10b;" horiz-adv-x="911" 
d="M412 1901h133v-158h-133v158zM836 788v-446q0 -172 -92.5 -266t-274.5 -94q-186 0 -288.5 103t-102.5 292v907q0 201 101.5 307.5t289.5 106.5q182 0 274.5 -92.5t92.5 -262.5v-385h-261v355q0 160 -108 160q-119 0 -119 -160v-944q0 -160 119 -160q109 0 108 160v419
h261z" />
    <glyph glyph-name="Ccaron" unicode="&#x10c;" horiz-adv-x="964" 
d="M713 2167l-142 -166h-170l-149 166h115l116 -103l121 103h109zM877 881v-525q0 -178 -100.5 -276t-287.5 -98q-190 0 -292.5 110.5t-102.5 313.5v1124q0 201 102.5 311.5t292.5 110.5q186 0 287 -96.5t101 -274.5v-469h-269v459q0 66 -31.5 104.5t-85 38.5t-88 -39
t-34.5 -104v-1206q0 -66 34.5 -106t88 -40t85 40t31.5 106v516h269z" />
    <glyph glyph-name="ccaron" unicode="&#x10d;" horiz-adv-x="911" 
d="M707 1907l-142 -166h-170l-149 166h114l117 -103l121 103h109zM836 788v-446q0 -172 -92.5 -266t-274.5 -94q-186 0 -288.5 103t-102.5 292v907q0 201 101.5 307.5t289.5 106.5q182 0 274.5 -92.5t92.5 -262.5v-385h-261v355q0 160 -108 160q-119 0 -119 -160v-944
q0 -160 119 -160q109 0 108 160v419h261z" />
    <glyph glyph-name="Dcaron" unicode="&#x10e;" 
d="M731 2161l-141 -166h-170l-150 166h115l117 -103l121 103h108zM518 1935q174 0 272.5 -104.5t98.5 -298.5v-1129q0 -195 -98.5 -299t-272.5 -104h-407v1935h407zM614 377v1184q0 66 -32.5 102.5t-85.5 36.5h-113v-1464h111q53 0 86.5 36.5t33.5 104.5z" />
    <glyph glyph-name="dcaron" unicode="&#x10f;" horiz-adv-x="1140" 
d="M561 1532v414h266v-1946h-266v158q-82 -176 -239 -174q-109 0 -176.5 76.5t-67.5 236.5v1087q0 160 67.5 237t176.5 77q86 0 139 -43t100 -123zM952 1946h162v-312q0 -156 -141 -155h-21v88h19q49 0 49 73v103h-68v203zM561 365v952q0 154 -110 153q-104 0 -105 -145
v-971q0 -145 105 -145q110 0 110 156z" />
    <glyph glyph-name="Dcroat" unicode="&#x110;" 
d="M518 1935q174 0 272.5 -104.5t98.5 -298.5v-1129q0 -195 -98.5 -299t-272.5 -104h-407v924h-99v90h99v921h407zM614 377v1184q0 66 -32.5 102.5t-85.5 36.5h-113v-686h133v-90h-133v-688h111q53 0 86.5 36.5t33.5 104.5z" />
    <glyph glyph-name="dcroat" unicode="&#x111;" horiz-adv-x="931" 
d="M889 1831v-90h-62v-1741h-266v158q-82 -176 -239 -174q-109 0 -176.5 76.5t-67.5 236.5v1087q0 160 67.5 237t176.5 77q86 0 139 -43t100 -123v209h-90v90h90v115h266v-115h62zM561 365v952q0 154 -110 153q-104 0 -105 -145v-971q0 -145 105 -145q110 0 110 156z" />
    <glyph glyph-name="Emacron" unicode="&#x112;" horiz-adv-x="800" 
d="M223 2122h455v-90h-455v90zM383 236h350v-236h-622v1935h618v-235h-346v-588h317v-231h-317v-645z" />
    <glyph glyph-name="emacron" unicode="&#x113;" horiz-adv-x="915" 
d="M227 1868h455v-90h-455v90zM463 1698q375 0 375 -391v-486h-490v-452q0 -160 121 -160q109 0 109 125v383h260v-402q0 -147 -100.5 -240t-268.5 -93q-190 0 -290.5 103t-100.5 292v907q0 201 100.5 307.5t284.5 106.5zM465 1477q-57 0 -87 -42t-30 -108v-293h225v293
q1 150 -108 150z" />
    <glyph glyph-name="Edotaccent" unicode="&#x116;" horiz-adv-x="800" 
d="M389 2154h133v-157h-133v157zM383 236h350v-236h-622v1935h618v-235h-346v-588h317v-231h-317v-645z" />
    <glyph glyph-name="edotaccent" unicode="&#x117;" horiz-adv-x="915" 
d="M393 1901h133v-158h-133v158zM463 1698q375 0 375 -391v-486h-490v-452q0 -160 121 -160q109 0 109 125v383h260v-402q0 -147 -100.5 -240t-268.5 -93q-190 0 -290.5 103t-100.5 292v907q0 201 100.5 307.5t284.5 106.5zM465 1477q-57 0 -87 -42t-30 -108v-293h225v293
q1 150 -108 150z" />
    <glyph glyph-name="Eogonek" unicode="&#x118;" horiz-adv-x="800" 
d="M608 -102q63 0 127 22v-94q-90 -53 -211 -53q-63 0 -108 31.5t-45 86.5q0 63 51 109h-311v1935h618v-235h-346v-588h317v-231h-317v-645h350v-236h-108q-63 -4 -64 -61q0 -41 47 -41z" />
    <glyph glyph-name="eogonek" unicode="&#x119;" horiz-adv-x="915" 
d="M838 821h-490v-452q0 -160 121 -160q109 0 109 125v383h260v-402q0 -137 -88 -228t-238 -103q-16 -16 -16 -43q0 -41 47 -41q63 0 127 22v-94q-90 -53 -211 -53q-63 0 -108.5 31.5t-45.5 87.5q0 57 43 100q-270 61 -270 383v907q0 201 100.5 307.5t284.5 106.5
q375 0 375 -391v-486zM348 1327v-293h225v293q0 150 -108 150q-57 0 -87 -42t-30 -108z" />
    <glyph glyph-name="Ecaron" unicode="&#x11a;" horiz-adv-x="800" 
d="M684 2161l-141 -166h-170l-150 166h115l117 -103l120 103h109zM383 236h350v-236h-622v1935h618v-235h-346v-588h317v-231h-317v-645z" />
    <glyph glyph-name="ecaron" unicode="&#x11b;" horiz-adv-x="915" 
d="M688 1907l-141 -166h-170l-150 166h115l117 -103l121 103h108zM463 1698q375 0 375 -391v-486h-490v-452q0 -160 121 -160q109 0 109 125v383h260v-402q0 -147 -100.5 -240t-268.5 -93q-190 0 -290.5 103t-100.5 292v907q0 201 100.5 307.5t284.5 106.5zM465 1477
q-57 0 -87 -42t-30 -108v-293h225v293q1 150 -108 150z" />
    <glyph glyph-name="Gbreve" unicode="&#x11e;" horiz-adv-x="970" 
d="M731 2161q-14 -72 -77.5 -119t-170.5 -47q-104 0 -167.5 47t-79.5 119h118q29 -82 129 -82q104 0 133 82h115zM618 131q-57 -150 -237 -149q-127 2 -207 96t-80 264v1188q0 203 103.5 312.5t298.5 109.5q188 0 287.5 -96.5t99.5 -266.5v-407h-271v389q0 143 -120 143
q-53 0 -88 -39t-35 -104v-1209q0 -143 120 -143q53 0 89 39t36 96v453h-127v229h396v-1036h-219l-27 131h-19z" />
    <glyph glyph-name="gbreve" unicode="&#x11f;" horiz-adv-x="927" 
d="M709 1901q-14 -72 -78 -119t-170 -47q-104 0 -168 47t-80 119h119q29 -82 129 -82q104 0 133 82h115zM592 1683h235l2 -1579q-2 -170 -93 -249.5t-234 -79.5h-348v223h276q133 0 133 129v149q-49 -94 -102 -139t-142 -45q-106 2 -174.5 78t-68.5 225v1000
q0 152 68.5 227.5t174.5 75.5q145 0 244 -176zM449 1470q-47 0 -76 -34.5t-29 -104.5v-866q0 -145 105 -146q111 0 110 156v842q1 153 -110 153z" />
    <glyph glyph-name="Gdotaccent" unicode="&#x120;" horiz-adv-x="970" 
d="M418 2161h133v-158h-133v158zM618 131q-57 -150 -237 -149q-127 2 -207 96t-80 264v1188q0 203 103.5 312.5t298.5 109.5q188 0 287.5 -96.5t99.5 -266.5v-407h-271v389q0 143 -120 143q-53 0 -88 -39t-35 -104v-1209q0 -143 120 -143q53 0 89 39t36 96v453h-127v229h396
v-1036h-219l-27 131h-19z" />
    <glyph glyph-name="gdotaccent" unicode="&#x121;" horiz-adv-x="927" 
d="M395 1901h133v-158h-133v158zM592 1683h235l2 -1579q-2 -170 -93 -249.5t-234 -79.5h-348v223h276q133 0 133 129v149q-49 -94 -102 -139t-142 -45q-106 2 -174.5 78t-68.5 225v1000q0 152 68.5 227.5t174.5 75.5q145 0 244 -176zM449 1470q-47 0 -76 -34.5t-29 -104.5
v-866q0 -145 105 -146q111 0 110 156v842q1 153 -110 153z" />
    <glyph glyph-name="uni0122" unicode="&#x122;" horiz-adv-x="970" 
d="M883 1182h-271v389q0 143 -120 143q-53 0 -88 -39t-35 -104v-1209q0 -143 120 -143q53 0 89 39t36 96v453h-127v229h396v-1036h-219l-27 131h-19q-57 -150 -237 -149q-127 2 -207 96t-80 264v1188q0 203 103.5 312.5t298.5 109.5q188 0 287.5 -96.5t99.5 -266.5v-407z
M406 -129v86h221v-94q0 -100 -131 -101h-90v60h79q47 0 47 35v14h-126z" />
    <glyph glyph-name="uni0123" unicode="&#x123;" horiz-adv-x="927" 
d="M827 1683l2 -1579q-2 -170 -93 -249.5t-234 -79.5h-348v223h276q133 0 133 129v149q-49 -94 -102 -139t-142 -45q-106 2 -174.5 78t-68.5 225v1000q0 152 68.5 227.5t174.5 75.5q145 0 244 -176l29 161h235zM559 475v842q0 154 -110 153q-47 0 -76 -34.5t-29 -104.5v-866
q0 -145 105 -146q110 0 110 156zM375 -342v86h221v-94q0 -100 -131 -101h-90v60h80q47 0 47 35v14h-127z" />
    <glyph glyph-name="Hbar" unicode="&#x126;" horiz-adv-x="980" 
d="M956 1593v-90h-79v-1503h-273v877h-221v-877h-272v1503h-86v90h86v342h272v-342h221v342h273v-342h79zM604 1114v389h-221v-389h221z" />
    <glyph glyph-name="hbar" unicode="&#x127;" horiz-adv-x="929" 
d="M629 1698q96 0 154.5 -64.5t58.5 -199.5v-1434h-267l-2 1362q0 100 -90 100q-49 0 -82.5 -35.5t-33.5 -101.5v-1325h-267v1741h-59v90h59v115h267v-115h94v-90h-94v-223q35 74 104.5 128t157.5 52z" />
    <glyph glyph-name="Imacron" unicode="&#x12a;" horiz-adv-x="493" 
d="M16 2122h455v-90h-455v90zM111 1935h272v-1935h-272v1935z" />
    <glyph glyph-name="imacron" unicode="&#x12b;" horiz-adv-x="466" 
d="M2 1868h455v-90h-455v90zM100 1681h267v-1681h-267v1681z" />
    <glyph glyph-name="Iogonek" unicode="&#x12e;" horiz-adv-x="493" 
d="M289 -102q63 0 127 22v-94q-90 -53 -211 -53q-63 0 -108.5 31.5t-45.5 86.5q0 68 60 115v1929h272v-1935h-78q-63 -4 -63 -61q0 -41 47 -41z" />
    <glyph glyph-name="iogonek" unicode="&#x12f;" horiz-adv-x="466" 
d="M367 1946v-197h-267v197h267zM276 -98q63 0 127 22v-94q-90 -53 -210 -53q-63 0 -108.5 31.5t-45.5 87.5q0 70 61 116v1669h267v-1681h-97q-41 -12 -41 -57q0 -41 47 -41z" />
    <glyph glyph-name="Idotaccent" unicode="&#x130;" horiz-adv-x="493" 
d="M182 2154h133v-157h-133v157zM111 1935h272v-1935h-272v1935z" />
    <glyph glyph-name="dotlessi" unicode="&#x131;" horiz-adv-x="466" 
d="M100 1681h267v-1681h-267v1681z" />
    <glyph glyph-name="uni0136" unicode="&#x136;" horiz-adv-x="980" 
d="M645 999l338 -999h-313l-267 893h-22l2 -893h-272v1935h272v-858h18l258 858h291zM422 -119v86h221v-94q0 -100 -131 -100h-90v59h80q47 0 47 35v14h-127z" />
    <glyph glyph-name="uni0137" unicode="&#x137;" horiz-adv-x="935" 
d="M641 897l283 -897h-299l-236 799h-20v-799h-269v1946h269v-983h18l231 718h287zM377 -119v86h221v-94q0 -100 -131 -100h-90v59h80q47 0 47 35v14h-127z" />
    <glyph glyph-name="Lacute" unicode="&#x139;" horiz-adv-x="710" 
d="M420 2154h176l-188 -165h-99zM383 236h334v-236h-606v1935h272v-1699z" />
    <glyph glyph-name="lacute" unicode="&#x13a;" horiz-adv-x="466" 
d="M272 2154h177l-189 -165h-98zM100 1946h267v-1946h-267v1946z" />
    <glyph glyph-name="uni013B" unicode="&#x13b;" horiz-adv-x="710" 
d="M383 236h334v-236h-606v1935h272v-1699zM291 -119v86h221v-94q0 -100 -131 -100h-90v59h80q47 0 47 35v14h-127z" />
    <glyph glyph-name="uni013C" unicode="&#x13c;" horiz-adv-x="466" 
d="M100 1946h267v-1946h-267v1946zM143 -119v86h222v-94q0 -100 -132 -100h-90v59h80q47 0 47 35v14h-127z" />
    <glyph glyph-name="Lcaron" unicode="&#x13d;" horiz-adv-x="772" 
d="M383 1935v-1699h334v-236h-606v1935h272zM567 1935h174v-577q0 -154 -141 -154h-33v92h31q49 0 49 72v184h-80v383z" />
    <glyph glyph-name="lcaron" unicode="&#x13e;" horiz-adv-x="466" 
d="M463 2161l-141 -166h-170l-150 166h115l116 -103l121 103h109zM100 1946h267v-1946h-267v1946z" />
    <glyph glyph-name="Lslash" unicode="&#x141;" horiz-adv-x="710" 
d="M383 236h334v-236h-606v813l-121 -70v154l121 70v968h272v-811l172 101v-156l-172 -98v-735z" />
    <glyph glyph-name="lslash" unicode="&#x142;" horiz-adv-x="466" 
d="M514 1260v-156l-147 -84v-1020h-267v866l-151 -88v154l151 88v926h267v-772z" />
    <glyph glyph-name="Nacute" unicode="&#x143;" horiz-adv-x="1009" 
d="M557 2154h176l-188 -165h-99zM662 840l-19 555v540h254v-1935h-264l-266 1196h-17l15 -528v-668h-254v1935h292l242 -1095h17z" />
    <glyph glyph-name="nacute" unicode="&#x144;" horiz-adv-x="927" 
d="M500 1901h176l-189 -166h-98zM629 1698q96 0 154.5 -64.5t58.5 -199.5v-1434h-267v1362q0 100 -92 100q-49 0 -82.5 -35.5t-33.5 -101.5v-1325h-267v1681h236l24 -163q37 72 109 127t160 53z" />
    <glyph glyph-name="uni0145" unicode="&#x145;" horiz-adv-x="1009" 
d="M643 1935h254v-1935h-264l-266 1196h-17l15 -528v-668h-254v1935h292l242 -1095h17l-19 555v540zM428 -119v86h221v-94q0 -100 -131 -100h-90v59h80q47 0 47 35v14h-127z" />
    <glyph glyph-name="uni0146" unicode="&#x146;" horiz-adv-x="927" 
d="M629 1698q96 0 154.5 -64.5t58.5 -199.5v-1434h-267v1362q0 100 -92 100q-49 0 -82.5 -35.5t-33.5 -101.5v-1325h-267v1681h236l24 -163q37 72 109 127t160 53zM371 -119v86h221v-94q0 -100 -131 -100h-90v59h80q47 0 47 35v14h-127z" />
    <glyph glyph-name="Ncaron" unicode="&#x147;" horiz-adv-x="1009" 
d="M748 2161l-142 -166h-170l-149 166h114l117 -103l121 103h109zM662 840l-19 555v540h254v-1935h-264l-266 1196h-17l15 -528v-668h-254v1935h292l242 -1095h17z" />
    <glyph glyph-name="ncaron" unicode="&#x148;" horiz-adv-x="927" 
d="M690 1907l-141 -166h-170l-150 166h115l117 -103l121 103h108zM629 1698q96 0 154.5 -64.5t58.5 -199.5v-1434h-267v1362q0 100 -92 100q-49 0 -82.5 -35.5t-33.5 -101.5v-1325h-267v1681h236l24 -163q37 72 109 127t160 53z" />
    <glyph glyph-name="Eng" unicode="&#x14a;" horiz-adv-x="1009" 
d="M643 1935h254v-1902q0 -109 -64.5 -170.5t-168.5 -61.5h-172v224h77q33 0 47.5 17t14.5 64v21l-264 1069h-17l15 -506v-690h-254v1935h292l242 -1095h17l-19 555v540z" />
    <glyph glyph-name="eng" unicode="&#x14b;" horiz-adv-x="927" 
d="M629 1698q96 0 154.5 -64.5t58.5 -199.5v-1385q0 -111 -65.5 -172t-172.5 -61q-82 0 -160 18v174h68q33 0 47 17.5t14 64.5l2 1272q0 100 -92 100q-49 0 -82.5 -35.5t-33.5 -101.5v-1325h-267v1681h236l24 -163q37 72 109 127t160 53z" />
    <glyph glyph-name="Omacron" unicode="&#x14c;" 
d="M260 2128h455v-90h-455v90zM489 1952q193 0 296.5 -110.5t103.5 -311.5v-1124q0 -203 -104.5 -313.5t-295 -110.5t-293 110.5t-102.5 313.5v1124q0 201 102.5 311.5t292.5 110.5zM614 365v1206q0 66 -32.5 104.5t-88 38.5t-90 -39t-34.5 -104v-1206q0 -66 34.5 -106
t88.5 -40q55 0 88.5 40t33.5 106z" />
    <glyph glyph-name="omacron" unicode="&#x14d;" horiz-adv-x="923" 
d="M231 1868h455v-90h-455v90zM463 1698q182 0 282.5 -104.5t100.5 -299.5v-907q0 -195 -100.5 -300t-282.5 -105q-184 0 -284.5 105.5t-100.5 299.5v907q0 195 100.5 299.5t284.5 104.5zM573 369l2 944q0 160 -112 160q-117 0 -117 -160l-2 -944q0 -78 32 -119t87 -41
q110 0 110 160z" />
    <glyph glyph-name="Ohungarumlaut" unicode="&#x150;" 
d="M399 2161h176l-188 -166h-98zM618 2159h177l-189 -166h-98zM489 1952q193 0 296.5 -110.5t103.5 -311.5v-1124q0 -203 -104.5 -313.5t-295 -110.5t-293 110.5t-102.5 313.5v1124q0 201 102.5 311.5t292.5 110.5zM614 365v1206q0 66 -32.5 104.5t-88 38.5t-90 -39
t-34.5 -104v-1206q0 -66 34.5 -106t88.5 -40q55 0 88.5 40t33.5 106z" />
    <glyph glyph-name="ohungarumlaut" unicode="&#x151;" horiz-adv-x="923" 
d="M371 1901h176l-189 -166h-98zM590 1898h176l-188 -165h-99zM463 1698q182 0 282.5 -104.5t100.5 -299.5v-907q0 -195 -100.5 -300t-282.5 -105q-184 0 -284.5 105.5t-100.5 299.5v907q0 195 100.5 299.5t284.5 104.5zM573 369l2 944q0 160 -112 160q-117 0 -117 -160
l-2 -944q0 -78 32 -119t87 -41q110 0 110 160z" />
    <glyph glyph-name="OE" unicode="&#x152;" horiz-adv-x="1306" 
d="M1241 236v-236h-612q-61 -18 -140 -18q-190 0 -292.5 110.5t-102.5 313.5v1124q0 201 102.5 311.5t292.5 110.5q72 0 134 -17h614v-235h-346v-588h317v-231h-317v-645h350zM614 365v1206q0 66 -32.5 104.5t-88 38.5t-90 -39t-34.5 -104v-1206q0 -66 34.5 -106t88.5 -40
q55 0 88.5 40t33.5 106z" />
    <glyph glyph-name="oe" unicode="&#x153;" horiz-adv-x="1409" 
d="M846 821v-434q0 -37 -2 -55q12 -123 119 -123q109 0 108 125v383h260v-402q0 -147 -100.5 -240t-267.5 -93q-158 0 -254 71q-96 -72 -246 -71q-184 0 -284.5 105.5t-100.5 299.5v907q0 195 100.5 299.5t284.5 104.5q152 0 246 -72q96 72 247 72q375 0 375 -391v-486h-485
zM958 1477q-104 0 -114 -123q2 -18 2 -60v-260h221v293q0 150 -109 150zM463 209q100 0 108 131v37v907q0 43 2 62q-10 127 -110 127q-117 0 -117 -160l-2 -944q0 -78 32 -119t87 -41z" />
    <glyph glyph-name="Racute" unicode="&#x154;" 
d="M709 2154l-189 -165h-98l110 165h177zM924 0h-271l-108 715h-162v-715h-272v1935h395q184 0 285.5 -97t101.5 -286v-430q0 -184 -115 -291zM385 946h80q152 0 151 168v420q0 166 -151 166h-80v-754z" />
    <glyph glyph-name="racute" unicode="&#x155;" horiz-adv-x="878" 
d="M504 1901h176l-188 -166h-99zM618 1698q94 0 151.5 -68.5t57.5 -216.5v-663h-266v596q0 61 -18.5 88.5t-63.5 27.5q-47 0 -79.5 -45t-32.5 -125v-1292h-267v1681h236l18 -163q55 90 111.5 135t152.5 45z" />
    <glyph glyph-name="uni0156" unicode="&#x156;" 
d="M778 831l146 -831h-271l-108 715h-162v-715h-272v1935h395q184 0 285.5 -97t101.5 -286v-430q0 -185 -115 -291zM385 946h80q152 0 151 168v420q0 166 -151 166h-80v-754zM403 -119v86h222v-94q0 -100 -131 -100h-91v59h80q47 0 47 35v14h-127z" />
    <glyph glyph-name="uni0157" unicode="&#x157;" horiz-adv-x="878" 
d="M618 1698q94 0 151.5 -68.5t57.5 -216.5v-663h-266v596q0 61 -18.5 88.5t-63.5 27.5q-47 0 -79.5 -45t-32.5 -125v-1292h-267v1681h236l18 -163q55 90 111.5 135t152.5 45zM375 -119v86h221v-94q0 -100 -131 -100h-90v59h80q47 0 47 35v14h-127z" />
    <glyph glyph-name="Rcaron" unicode="&#x158;" 
d="M582 1995h-170l-150 166h115l117 -103l120 103h109zM924 0h-271l-108 715h-162v-715h-272v1935h395q184 0 285.5 -97t101.5 -286v-430q0 -184 -115 -291zM385 946h80q152 0 151 168v420q0 166 -151 166h-80v-754z" />
    <glyph glyph-name="rcaron" unicode="&#x159;" horiz-adv-x="878" 
d="M694 1907l-141 -166h-170l-150 166h115l117 -103l121 103h108zM618 1698q94 0 151.5 -68.5t57.5 -216.5v-663h-266v596q0 61 -18.5 88.5t-63.5 27.5q-47 0 -79.5 -45t-32.5 -125v-1292h-267v1681h236l18 -163q55 90 111.5 135t152.5 45z" />
    <glyph glyph-name="Sacute" unicode="&#x15a;" horiz-adv-x="970" 
d="M516 2161h176l-188 -166h-98zM872 1286h-268v311q0 117 -121 117q-55 0 -84.5 -28.5t-29.5 -71.5v-303q0 -55 23.5 -85t80.5 -57l141 -55q141 -57 209 -135t68 -229v-394q0 -172 -107.5 -273t-287.5 -101q-182 0 -288 93t-106 251v397h271v-377q0 -55 31.5 -91t91.5 -36
q53 0 86.5 35t33.5 86v369q0 109 -122 159l-150 54q-129 47 -188.5 129t-59.5 223v330q0 150 99.5 249t291.5 99q186 0 285.5 -89t99.5 -239v-338z" />
    <glyph glyph-name="sacute" unicode="&#x15b;" horiz-adv-x="888" 
d="M485 1901h177l-189 -166h-98zM592 975q123 -37 181 -115t58 -209v-332q0 -156 -104 -246.5t-274 -90.5q-180 0 -281.5 82.5t-101.5 257.5v331h262v-346q0 -45 31.5 -71.5t80.5 -26.5q53 0 85 26.5t32 67.5v315q0 86 -106 123l-174 47q-115 33 -167.5 108t-52.5 202v272
q0 145 101.5 236.5t277.5 91.5q182 0 275.5 -84t93.5 -215v-293h-260v264q0 49 -31 78t-78 29q-51 0 -80.5 -25t-29.5 -63v-261q0 -43 20.5 -66.5t71.5 -39.5z" />
    <glyph glyph-name="Scedilla" unicode="&#x15e;" horiz-adv-x="970" 
d="M614 1114q141 -57 209 -135t68 -229v-394q0 -170 -104.5 -270t-282.5 -104l-58 -95q47 41 91 41q74 0 73 -73v-21q0 -51 -36.5 -79.5t-94.5 -28.5q-61 0 -98 27.5t-37 76.5v12h111v-28q0 -27 22 -27q20 0 21 27v28q0 31 -27 31h-117l68 113q-150 18 -235 108t-85 232v397
h271v-377q0 -55 31.5 -91t91.5 -36q53 0 86.5 35t33.5 86v369q0 109 -122 159l-150 54q-129 47 -188.5 129t-59.5 223v330q0 150 99.5 249t291.5 99q186 0 285.5 -89t99.5 -239v-338h-268v311q0 117 -121 117q-55 0 -84.5 -28.5t-29.5 -71.5v-303q0 -55 23.5 -85t80.5 -57z
" />
    <glyph glyph-name="scedilla" unicode="&#x15f;" horiz-adv-x="888" 
d="M592 975q123 -37 181 -115t58 -209v-332q0 -152 -99 -242.5t-263 -94.5l-59 -97q47 41 90 41q74 0 73 -73v-21q0 -51 -36.5 -79.5t-94.5 -28.5q-61 0 -98 27.5t-37 76.5v12h111v-28q0 -27 22 -27q20 0 21 27v28q0 31 -27 31h-117l68 115q-315 31 -315 336v331h262v-346
q0 -45 31.5 -71.5t80.5 -26.5q53 0 85 26.5t32 67.5v315q0 86 -106 123l-174 47q-115 33 -167.5 108t-52.5 202v272q0 145 101.5 236.5t277.5 91.5q182 0 275.5 -84t93.5 -215v-293h-260v264q0 49 -31 78t-78 29q-51 0 -80.5 -25t-29.5 -63v-261q0 -43 20.5 -66.5
t71.5 -39.5z" />
    <glyph glyph-name="Scaron" unicode="&#x160;" horiz-adv-x="970" 
d="M707 2167l-142 -166h-170l-149 166h114l117 -103l121 103h109zM872 1286h-268v311q0 117 -121 117q-55 0 -84.5 -28.5t-29.5 -71.5v-303q0 -55 23.5 -85t80.5 -57l141 -55q141 -57 209 -135t68 -229v-394q0 -172 -107.5 -273t-287.5 -101q-182 0 -288 93t-106 251v397
h271v-377q0 -55 31.5 -91t91.5 -36q53 0 86.5 35t33.5 86v369q0 109 -122 159l-150 54q-129 47 -188.5 129t-59.5 223v330q0 150 99.5 249t291.5 99q186 0 285.5 -89t99.5 -239v-338z" />
    <glyph glyph-name="scaron" unicode="&#x161;" horiz-adv-x="888" 
d="M676 1907l-141 -166h-170l-150 166h115l116 -103l121 103h109zM592 975q123 -37 181 -115t58 -209v-332q0 -156 -104 -246.5t-274 -90.5q-180 0 -281.5 82.5t-101.5 257.5v331h262v-346q0 -45 31.5 -71.5t80.5 -26.5q53 0 85 26.5t32 67.5v315q0 86 -106 123l-174 47
q-115 33 -167.5 108t-52.5 202v272q0 145 101.5 236.5t277.5 91.5q182 0 275.5 -84t93.5 -215v-293h-260v264q0 49 -31 78t-78 29q-51 0 -80.5 -25t-29.5 -63v-261q0 -43 20.5 -66.5t71.5 -39.5z" />
    <glyph glyph-name="uni0162" unicode="&#x162;" horiz-adv-x="815" 
d="M6 1935h803v-235h-264v-1700h-111l-63 -104q47 41 90 41q74 0 74 -74v-21q0 -51 -37 -79.5t-95 -28.5q-63 0 -99 27.5t-36 76.5v12h111v-28q0 -27 22 -27q20 0 21 27v28q0 31 -27 31h-116l71 119h-78v1698h-266v237z" />
    <glyph glyph-name="uni0163" unicode="&#x163;" horiz-adv-x="669" 
d="M471 0q-31 0 -45 2l-66 -106q47 41 91 41q74 0 73 -74v-21q0 -51 -36.5 -79.5t-94.5 -28.5q-61 0 -98 27.5t-37 76.5v12h111v-28q0 -27 22 -27q20 0 21 27v28q0 31 -27 31h-117l80 135q-182 55 -182 273v1173h-152v219q127 0 167 48.5t61 195.5h196v-244h203v-219h-209
v-1110q0 -117 98 -116h117v-236h-176z" />
    <glyph glyph-name="Tcaron" unicode="&#x164;" horiz-adv-x="815" 
d="M637 2161l-141 -166h-170l-150 166h115l117 -103l120 103h109zM809 1935v-235h-264v-1700h-273v1698h-266v237h803z" />
    <glyph glyph-name="tcaron" unicode="&#x165;" horiz-adv-x="886" 
d="M432 352q0 -117 98 -116h117v-236h-176q-150 0 -227.5 76t-77.5 213v1173h-152v219q127 0 167 48.5t61 195.5h196v-244h203v-219h-209v-1110zM692 1925h164v-311q0 -156 -141 -156h-23v90h21q49 0 49 72v102h-70v203z" />
    <glyph glyph-name="Tbar" unicode="&#x166;" horiz-adv-x="815" 
d="M809 1700h-264v-686h110v-90h-110v-924h-273v924h-120v90h120v684h-266v237h803v-235z" />
    <glyph glyph-name="tbar" unicode="&#x167;" horiz-adv-x="647" 
d="M530 236h117v-236h-176q-150 0 -227.5 76t-77.5 213v551h-154v88h154v534h-152v219q127 0 167 48.5t61 195.5h196v-244h203v-219h-209v-534h207v-88h-207v-488q0 -116 98 -116z" />
    <glyph glyph-name="Umacron" unicode="&#x16a;" 
d="M260 2122h455v-90h-455v90zM874 1935v-1601q0 -172 -100 -262t-285 -90q-182 0 -282.5 89t-100.5 259v1605h273v-1583q0 -68 31.5 -100.5t81.5 -32.5q113 0 112 133v1583h270z" />
    <glyph glyph-name="umacron" unicode="&#x16b;" horiz-adv-x="927" 
d="M223 1868h455v-90h-455v90zM563 1681h266v-1681h-235l-27 164q-37 -72 -108.5 -127t-157.5 -53q-213 0 -213 274v1423h266v-1362q0 -100 90 -100q51 0 85 36t34 101v1325z" />
    <glyph glyph-name="Uring" unicode="&#x16e;" 
d="M494 1946q-47 0 -78 29.5t-31 74.5t30.5 74.5t78.5 29.5q45 0 75.5 -29.5t30.5 -74.5t-30.5 -74.5t-75.5 -29.5zM491.5 1999q20.5 0 36 15.5t15.5 35.5q-2 23 -16.5 37t-35 14t-36 -14t-15.5 -36.5t15.5 -37t36 -14.5zM874 1935v-1601q0 -172 -100 -262t-285 -90
q-182 0 -282.5 89t-100.5 259v1605h273v-1583q0 -68 31.5 -100.5t81.5 -32.5q113 0 112 133v1583h270z" />
    <glyph glyph-name="uring" unicode="&#x16f;" horiz-adv-x="927" 
d="M457 1692q-47 0 -78 29.5t-31 74.5t31 75t78 30q45 0 75.5 -30t30.5 -75t-30.5 -74.5t-75.5 -29.5zM454.5 1745q20.5 0 36 15.5t15.5 35.5q-2 23 -16.5 37t-35 14t-36 -14t-15.5 -36.5t15.5 -37t36 -14.5zM563 1681h266v-1681h-235l-27 164q-37 -72 -108.5 -127
t-157.5 -53q-213 0 -213 274v1423h266v-1362q0 -100 90 -100q51 0 85 36t34 101v1325z" />
    <glyph glyph-name="Uhungarumlaut" unicode="&#x170;" 
d="M399 2154h176l-188 -165h-98zM618 2152h177l-189 -165h-98zM874 1935v-1601q0 -172 -100 -262t-285 -90q-182 0 -282.5 89t-100.5 259v1605h273v-1583q0 -68 31.5 -100.5t81.5 -32.5q113 0 112 133v1583h270z" />
    <glyph glyph-name="uhungarumlaut" unicode="&#x171;" horiz-adv-x="927" 
d="M362 1901h177l-189 -166h-98zM582 1898h176l-189 -165h-98zM563 1681h266v-1681h-235l-27 164q-37 -72 -108.5 -127t-157.5 -53q-213 0 -213 274v1423h266v-1362q0 -100 90 -100q51 0 85 36t34 101v1325z" />
    <glyph glyph-name="Uogonek" unicode="&#x172;" 
d="M604 1935h270v-1601q0 -160 -87 -249t-246 -101q-16 -16 -17 -43q0 -41 47 -41q63 0 127 22v-94q-90 -53 -211 -53q-63 0 -108 31.5t-45 87t41 98.5q-268 55 -269 338v1605h273v-1583q0 -68 31.5 -100.5t81.5 -32.5q113 0 112 133v1583z" />
    <glyph glyph-name="uogonek" unicode="&#x173;" horiz-adv-x="927" 
d="M696 0q-63 -4 -63 -61q0 -41 47 -41q63 0 127 22v-94q-90 -53 -211 -53q-63 0 -108.5 31.5t-45.5 86.5q0 47 36 93.5t108 62.5l-19 117q-37 -72 -108.5 -127t-157.5 -53q-213 0 -213 274v1423h266v-1362q0 -100 90 -100q51 0 85 36t34 101v1325h266v-1681h-133z" />
    <glyph glyph-name="Wcircumflex" unicode="&#x174;" horiz-adv-x="1476" 
d="M971 1989h-109l-121 102l-116 -102h-115l149 165h170zM1049 578h20l27 368l94 989h287l-236 -1933h-340l-119 959l-37 419h-16l-35 -419l-121 -961h-340l-229 1935h287l90 -989l29 -366h18l37 366l129 989h293l129 -989z" />
    <glyph glyph-name="wcircumflex" unicode="&#x175;" horiz-adv-x="1337" 
d="M899 1735h-108l-121 102l-117 -102h-115l150 166h170zM954 551l17 260l59 875h273l-195 -1686h-293l-100 799l-29 303h-27l-30 -303l-103 -799h-299l-192 1686h272l68 -875l18 -260h21l22 260l123 875h229l117 -875l25 -260h24z" />
    <glyph glyph-name="Ycircumflex" unicode="&#x176;" horiz-adv-x="968" 
d="M713 1989h-109l-121 102l-116 -102h-115l149 165h170zM500 1057l49 258l108 620l299 2l-335 -1386v-551h-273v557l-334 1380l305 -2l111 -620l49 -258h21z" />
    <glyph glyph-name="ycircumflex" unicode="&#x177;" horiz-adv-x="886" 
d="M666 1735h-109l-121 102l-117 -102h-114l149 166h170zM461 489l43 363l69 829h279l-231 -1583q-70 -324 -357 -323h-219v223h141q74 0 105 57l-256 1626h276l86 -829l43 -363h21z" />
    <glyph glyph-name="Ydieresis" unicode="&#x178;" horiz-adv-x="968" 
d="M307 2154h135v-157h-135v157zM526 2154h136v-157h-136v157zM500 1057l49 258l108 620l299 2l-335 -1386v-551h-273v557l-334 1380l305 -2l111 -620l49 -258h21z" />
    <glyph glyph-name="Zacute" unicode="&#x179;" horiz-adv-x="841" 
d="M467 2154h176l-188 -165h-99zM360 236h433v-236h-740v215l412 1485h-406v235h705l-2 -219z" />
    <glyph glyph-name="zacute" unicode="&#x17a;" horiz-adv-x="761" 
d="M403 1901h177l-189 -166h-98zM330 221h391v-221h-674v201l369 1259h-357v221h650v-202z" />
    <glyph glyph-name="Zdotaccent" unicode="&#x17b;" horiz-adv-x="841" 
d="M362 2154h134v-157h-134v157zM360 236h433v-236h-740v215l412 1485h-406v235h705l-2 -219z" />
    <glyph glyph-name="zdotaccent" unicode="&#x17c;" horiz-adv-x="761" 
d="M299 1901h133v-158h-133v158zM330 221h391v-221h-674v201l369 1259h-357v221h650v-202z" />
    <glyph glyph-name="Zcaron" unicode="&#x17d;" horiz-adv-x="841" 
d="M657 2161l-141 -166h-170l-149 166h114l117 -103l121 103h108zM360 236h433v-236h-740v215l412 1485h-406v235h705l-2 -219z" />
    <glyph glyph-name="zcaron" unicode="&#x17e;" horiz-adv-x="761" 
d="M594 1907l-141 -166h-170l-150 166h115l117 -103l120 103h109zM330 221h391v-221h-674v201l369 1259h-357v221h650v-202z" />
    <glyph glyph-name="uni0218" unicode="&#x218;" horiz-adv-x="970" 
d="M614 1114q141 -57 209 -135t68 -229v-394q0 -172 -107.5 -273t-287.5 -101q-182 0 -288 93t-106 251v397h271v-377q0 -55 31.5 -91t91.5 -36q53 0 86.5 35t33.5 86v369q0 109 -122 159l-150 54q-129 47 -188.5 129t-59.5 223v330q0 150 99.5 249t291.5 99
q186 0 285.5 -89t99.5 -239v-338h-268v311q0 117 -121 117q-55 0 -84.5 -28.5t-29.5 -71.5v-303q0 -55 23.5 -85t80.5 -57zM393 -127v86h221v-94q0 -100 -131 -101h-90v60h80q47 0 47 35v14h-127z" />
    <glyph glyph-name="uni0219" unicode="&#x219;" horiz-adv-x="888" 
d="M592 975q123 -37 181 -115t58 -209v-332q0 -156 -104 -246.5t-274 -90.5q-180 0 -281.5 82.5t-101.5 257.5v331h262v-346q0 -45 31.5 -71.5t80.5 -26.5q53 0 85 26.5t32 67.5v315q0 86 -106 123l-174 47q-115 33 -167.5 108t-52.5 202v272q0 145 101.5 236.5t277.5 91.5
q182 0 275.5 -84t93.5 -215v-293h-260v264q0 49 -31 78t-78 29q-51 0 -80.5 -25t-29.5 -63v-261q0 -43 20.5 -66.5t71.5 -39.5zM356 -129v86h222v-94q0 -100 -132 -101h-90v60h80q47 0 47 35v14h-127z" />
    <glyph glyph-name="uni021A" unicode="&#x21a;" horiz-adv-x="815" 
d="M6 1935h803v-235h-264v-1700h-273v1698h-266v237zM317 -119v86h222v-94q0 -100 -131 -100h-91v59h80q47 0 47 35v14h-127z" />
    <glyph glyph-name="uni021B" unicode="&#x21b;" horiz-adv-x="669" 
d="M530 236h117v-236h-176q-150 0 -227.5 76t-77.5 213v1173h-152v219q127 0 167 48.5t61 195.5h196v-244h203v-219h-209v-1110q0 -116 98 -116zM307 -119v86h221v-94q0 -100 -131 -100h-90v59h80q47 0 47 35v14h-127z" />
    <glyph glyph-name="Wgrave" unicode="&#x1e80;" horiz-adv-x="1476" 
d="M711 2154l110 -165h-98l-188 165h176zM1049 578h20l27 368l94 989h287l-236 -1933h-340l-119 959l-37 419h-16l-35 -419l-121 -961h-340l-229 1935h287l90 -989l29 -366h18l37 366l129 989h293l129 -989z" />
    <glyph glyph-name="wgrave" unicode="&#x1e81;" horiz-adv-x="1337" 
d="M639 1901l111 -166h-99l-188 166h176zM954 551l17 260l59 875h273l-195 -1686h-293l-100 799l-29 303h-27l-30 -303l-103 -799h-299l-192 1686h272l68 -875l18 -260h21l22 260l123 875h229l117 -875l25 -260h24z" />
    <glyph glyph-name="Wacute" unicode="&#x1e82;" horiz-adv-x="1476" 
d="M780 2154h176l-188 -165h-98zM1049 578h20l27 368l94 989h287l-236 -1933h-340l-119 959l-37 419h-16l-35 -419l-121 -961h-340l-229 1935h287l90 -989l29 -366h18l37 366l129 989h293l129 -989z" />
    <glyph glyph-name="wacute" unicode="&#x1e83;" horiz-adv-x="1337" 
d="M709 1901h176l-189 -166h-98zM954 551l17 260l59 875h273l-195 -1686h-293l-100 799l-29 303h-27l-30 -303l-103 -799h-299l-192 1686h272l68 -875l18 -260h21l22 260l123 875h229l117 -875l25 -260h24z" />
    <glyph glyph-name="Wdieresis" unicode="&#x1e84;" horiz-adv-x="1476" 
d="M565 2154h135v-157h-135v157zM784 2154h136v-157h-136v157zM1049 578h20l27 368l94 989h287l-236 -1933h-340l-119 959l-37 419h-16l-35 -419l-121 -961h-340l-229 1935h287l90 -989l29 -366h18l37 366l129 989h293l129 -989z" />
    <glyph glyph-name="wdieresis" unicode="&#x1e85;" horiz-adv-x="1337" 
d="M494 1901h135v-158h-135v158zM713 1901h135v-158h-135v158zM954 551l17 260l59 875h273l-195 -1686h-293l-100 799l-29 303h-27l-30 -303l-103 -799h-299l-192 1686h272l68 -875l18 -260h21l22 260l123 875h229l117 -875l25 -260h24z" />
    <glyph glyph-name="Ygrave" unicode="&#x1ef2;" horiz-adv-x="968" 
d="M453 2154l110 -165h-98l-189 165h177zM500 1057l49 258l108 620l299 2l-335 -1386v-551h-273v557l-334 1380l305 -2l111 -620l49 -258h21z" />
    <glyph glyph-name="ygrave" unicode="&#x1ef3;" horiz-adv-x="886" 
d="M406 1901l110 -166h-98l-189 166h177zM461 489l43 363l69 829h279l-231 -1583q-70 -324 -357 -323h-219v223h141q74 0 105 57l-256 1626h276l86 -829l43 -363h21z" />
    <glyph glyph-name="endash" unicode="&#x2013;" horiz-adv-x="727" 
d="M18 1085h691v-225h-691v225z" />
    <glyph glyph-name="emdash" unicode="&#x2014;" horiz-adv-x="1110" 
d="M18 1085h1074v-225h-1074v225z" />
    <glyph glyph-name="quoteleft" unicode="&#x2018;" horiz-adv-x="514" 
d="M344 1841q-76 0 -76 -78v-34h127v-314h-274v357q0 80 48 123.5t138 43.5h90v-98h-53z" />
    <glyph glyph-name="quoteright" unicode="&#x2019;" horiz-adv-x="514" 
d="M119 1935h274v-356q0 -80 -48 -124t-138 -44h-90v98h53q76 0 76 78v35h-127v313z" />
    <glyph glyph-name="quotesinglbase" unicode="&#x201a;" horiz-adv-x="514" 
d="M121 313h274v-356q0 -80 -48 -124t-138 -44h-90v98h53q76 0 76 78v35h-127v313z" />
    <glyph glyph-name="quotedblleft" unicode="&#x201c;" horiz-adv-x="944" 
d="M121 1772q0 80 48 123.5t138 43.5h90v-98h-53q-76 0 -76 -78v-34h127v-314h-274v357zM774 1841q-76 0 -76 -78v-34h127v-314h-274v357q0 80 48 123.5t138 43.5h90v-98h-53z" />
    <glyph glyph-name="quotedblright" unicode="&#x201d;" horiz-adv-x="944" 
d="M119 1622v313h274v-356q0 -80 -48 -124t-138 -44h-90v98h53q76 0 76 78v35h-127zM549 1935h274v-356q0 -80 -48 -124t-138 -44h-90v98h53q76 0 76 78v35h-127v313z" />
    <glyph glyph-name="quotedblbase" unicode="&#x201e;" horiz-adv-x="942" 
d="M121 0v313h274v-356q0 -80 -48 -124t-138 -44h-90v98h53q76 0 76 78v35h-127zM549 313h274v-356q0 -80 -48 -124t-138 -44h-90v98h53q76 0 76 78v35h-127v313z" />
    <glyph glyph-name="dagger" unicode="&#x2020;" horiz-adv-x="589" 
d="M532 1681v-172h-141v-485q-57 -27 -83.5 -79t-41.5 -150h-67v714h-142v172h142q102 45 123 240h69v-240h141z" />
    <glyph glyph-name="daggerdbl" unicode="&#x2021;" horiz-adv-x="589" 
d="M532 1509h-141v-313h141v-172h-141q-57 -27 -83.5 -79t-41.5 -150h-67v229h-142v172h142v313h-142v172h142q102 45 123 240h69v-240h141v-172z" />
    <glyph glyph-name="bullet" unicode="&#x2022;" horiz-adv-x="720" 
d="M649 1204v-583h-510v583h510z" />
    <glyph glyph-name="ellipsis" unicode="&#x2026;" horiz-adv-x="1529" 
d="M395 313v-313h-274v313h274zM903 313v-313h-274v313h274zM1411 313v-313h-274v313h274z" />
    <glyph glyph-name="guilsinglleft" unicode="&#x2039;" horiz-adv-x="710" 
d="M352 842h-272l285 839h276zM352 840l289 -840h-276l-285 840h272z" />
    <glyph glyph-name="guilsinglright" unicode="&#x203a;" horiz-adv-x="710" 
d="M358 842l-288 839h276l285 -839h-273zM358 840h273l-285 -840h-276z" />
    <glyph glyph-name="Euro" unicode="&#x20ac;" horiz-adv-x="1017" 
d="M930 1231h-264v346q0 143 -119 143q-51 0 -87 -35.5t-36 -107.5v-461h342v-92h-342v-90h342v-92h-342v-484q0 -72 35 -107.5t88 -35.5q119 0 119 143v365h264v-387q0 -160 -100.5 -257t-282.5 -97q-186 0 -290.5 98t-104.5 282v480h-119v92h119v90h-119v92h119v457
q0 182 104 280.5t291 98.5q182 0 282.5 -96.5t100.5 -256.5v-368z" />
    <glyph glyph-name="trademark" unicode="&#x2122;" horiz-adv-x="1007" 
d="M393 1935v-129h-108v-735h-156v735h-109v129h373zM428 1935h182l64 -366l20 -183l19 183l67 366h185v-864h-146v315l6 263l-88 -578h-88l-84 578l8 -263v-315h-145v864z" />
    <glyph glyph-name="lozenge" unicode="&#x25ca;" horiz-adv-x="1320" 
d="M662 1894l-279 -1026h-272l284 1067h531l284 -1067h-272zM662 -160l276 1026h272l-284 -1067h-531l-284 1067h272z" />
    <glyph glyph-name="i.aalt" horiz-adv-x="466" 
d="M100 1901h265v-156h-265v156zM100 1681h267v-1681h-267v1681z" />
    <glyph glyph-name="glyph295" horiz-adv-x="2510" 
 />
    <glyph glyph-name="glyph296" horiz-adv-x="1355" 
 />
    <glyph glyph-name="glyph297" horiz-adv-x="2516" 
 />
    <glyph glyph-name="glyph298" horiz-adv-x="1296" 
 />
    <glyph glyph-name="glyph299" horiz-adv-x="1267" 
 />
    <glyph glyph-name="glyph300" horiz-adv-x="1277" 
 />
    <glyph glyph-name="glyph301" horiz-adv-x="1228" 
 />
    <glyph glyph-name="glyph302" horiz-adv-x="1228" 
 />
    <glyph glyph-name="glyph303" horiz-adv-x="1136" 
 />
    <glyph glyph-name="glyph304" horiz-adv-x="1097" 
 />
    <glyph glyph-name="glyph305" horiz-adv-x="978" 
 />
    <glyph glyph-name="glyph306" horiz-adv-x="661" 
 />
    <glyph glyph-name="glyph307" horiz-adv-x="1132" 
 />
    <glyph glyph-name="glyph308" horiz-adv-x="1138" 
 />
    <glyph glyph-name="glyph309" horiz-adv-x="952" 
 />
    </font>
</defs>
</svg>
